<?xml version="1.0" encoding="UTF-8"?>
<!DOCTYPE svg PUBLIC "-//W3C//DTD SVG 1.1//EN" "http://www.w3.org/Graphics/SVG/1.1/DTD/svg11.dtd">
<svg xmlns="http://www.w3.org/2000/svg" version="1.1" width="361px" height="701px" style="shape-rendering:geometricPrecision; text-rendering:geometricPrecision; image-rendering:optimizeQuality; fill-rule:evenodd; clip-rule:evenodd" xmlns:xlink="http://www.w3.org/1999/xlink">
<g><path style="opacity:1" fill="#f6f6f6" d="M -0.5,-0.5 C 119.833,-0.5 240.167,-0.5 360.5,-0.5C 360.5,48.5 360.5,97.5 360.5,146.5C 358.5,146.5 356.5,146.5 354.5,146.5C 354.5,144.167 354.5,141.833 354.5,139.5C 350.167,139.5 345.833,139.5 341.5,139.5C 341.5,135.167 341.5,130.833 341.5,126.5C 336.833,126.5 332.167,126.5 327.5,126.5C 327.5,124.167 327.5,121.833 327.5,119.5C 323.167,119.5 318.833,119.5 314.5,119.5C 314.5,115.167 314.5,110.833 314.5,106.5C 305.5,106.5 296.5,106.5 287.5,106.5C 287.5,104.167 287.5,101.833 287.5,99.5C 283.167,99.5 278.833,99.5 274.5,99.5C 274.5,97.5 274.5,95.5 274.5,93.5C 265.827,93.6664 257.16,93.4998 248.5,93C 247.577,90.9592 247.244,88.7925 247.5,86.5C 243.167,86.5 238.833,86.5 234.5,86.5C 234.5,84.1667 234.5,81.8333 234.5,79.5C 207.833,79.5 181.167,79.5 154.5,79.5C 154.5,81.8333 154.5,84.1667 154.5,86.5C 141.167,86.5 127.833,86.5 114.5,86.5C 114.5,88.8333 114.5,91.1667 114.5,93.5C 110.167,93.5 105.833,93.5 101.5,93.5C 101.5,95.5 101.5,97.5 101.5,99.5C 92.5,99.5 83.5,99.5 74.5,99.5C 74.5,101.833 74.5,104.167 74.5,106.5C 70.1667,106.5 65.8333,106.5 61.5,106.5C 61.7564,108.792 61.4231,110.959 60.5,113C 56.1794,113.499 51.8461,113.666 47.5,113.5C 47.5,117.833 47.5,122.167 47.5,126.5C 43.1667,126.5 38.8333,126.5 34.5,126.5C 34.5,128.833 34.5,131.167 34.5,133.5C 30.1667,133.5 25.8333,133.5 21.5,133.5C 21.5,137.833 21.5,142.167 21.5,146.5C 16.8333,146.5 12.1667,146.5 7.5,146.5C 7.5,150.833 7.5,155.167 7.5,159.5C 4.83333,159.5 2.16667,159.5 -0.5,159.5C -0.5,106.167 -0.5,52.8333 -0.5,-0.5 Z"/></g>
<g><path style="opacity:1" fill="#e2e6e9" d="M 166.5,22.5 C 166.185,26.3714 166.518,30.0381 167.5,33.5C 167.092,34.6431 166.425,35.6431 165.5,36.5C 164.473,35.2086 163.473,35.2086 162.5,36.5C 163.762,30.7032 163.762,25.0366 162.5,19.5C 160.341,13.4159 156.008,10.9159 149.5,12C 144.937,14.4248 143.271,18.2581 144.5,23.5C 144.878,25.921 145.545,28.2543 146.5,30.5C 146.5,33.1667 146.5,35.8333 146.5,38.5C 146.5,38.8333 146.5,39.1667 146.5,39.5C 145.763,41.3046 144.763,42.9713 143.5,44.5C 145.743,45.4742 148.076,45.8076 150.5,45.5C 149.048,46.3019 147.382,46.8019 145.5,47C 146.696,47.6543 146.696,48.1543 145.5,48.5C 143.118,46.9293 140.451,46.096 137.5,46C 138.833,45.3333 138.833,44.6667 137.5,44C 136.552,43.5172 135.552,43.3505 134.5,43.5C 134.5,42.5 134.5,41.5 134.5,40.5C 137.635,43.3472 140.468,43.0139 143,39.5C 141.955,31.2308 141.622,22.8975 142,14.5C 146.953,7.90195 153.12,6.73528 160.5,11C 164.227,13.9545 166.227,17.7879 166.5,22.5 Z"/></g>
<g><path style="opacity:1" fill="#293037" d="M 162.5,19.5 C 161.476,23.2233 160.143,23.0567 158.5,19C 153.991,18.2711 149.658,18.7711 145.5,20.5C 145.737,21.791 145.404,22.791 144.5,23.5C 143.271,18.2581 144.937,14.4248 149.5,12C 156.008,10.9159 160.341,13.4159 162.5,19.5 Z"/></g>
<g><path style="opacity:1" fill="#313b42" d="M 167.5,19.5 C 167.737,20.791 167.404,21.791 166.5,22.5C 166.227,17.7879 164.227,13.9545 160.5,11C 153.12,6.73528 146.953,7.90195 142,14.5C 141.622,22.8975 141.955,31.2308 143,39.5C 140.468,43.0139 137.635,43.3472 134.5,40.5C 125.337,28.2844 126.67,17.4511 138.5,8C 148.641,3.60379 157.474,5.43712 165,13.5C 166.559,15.2166 167.392,17.2166 167.5,19.5 Z"/></g>
<g><path style="opacity:1" fill="#445565" d="M 146.5,38.5 C 146.5,35.8333 146.5,33.1667 146.5,30.5C 147.205,27.7719 147.872,24.9386 148.5,22C 151.817,21.5017 155.15,21.335 158.5,21.5C 158.301,25.6556 158.134,29.6556 158,33.5C 154.606,34.4558 151.106,34.7892 147.5,34.5C 147.768,36.099 147.434,37.4324 146.5,38.5 Z"/></g>
<g><path style="opacity:1" fill="#818083" d="M 167.5,19.5 C 168.744,24.0352 168.744,28.7019 167.5,33.5C 166.518,30.0381 166.185,26.3714 166.5,22.5C 167.404,21.791 167.737,20.791 167.5,19.5 Z"/></g>
<g><path style="opacity:1" fill="#374450" d="M 162.5,19.5 C 163.762,25.0366 163.762,30.7032 162.5,36.5C 161.833,37.5 161.167,38.5 160.5,39.5C 159.214,37.6325 157.881,37.4658 156.5,39C 153.183,39.4983 149.85,39.665 146.5,39.5C 146.5,39.1667 146.5,38.8333 146.5,38.5C 147.434,37.4324 147.768,36.099 147.5,34.5C 151.106,34.7892 154.606,34.4558 158,33.5C 158.134,29.6556 158.301,25.6556 158.5,21.5C 155.15,21.335 151.817,21.5017 148.5,22C 147.872,24.9386 147.205,27.7719 146.5,30.5C 145.545,28.2543 144.878,25.921 144.5,23.5C 145.404,22.791 145.737,21.791 145.5,20.5C 149.658,18.7711 153.991,18.2711 158.5,19C 160.143,23.0567 161.476,23.2233 162.5,19.5 Z"/></g>
<g><path style="opacity:1" fill="#242b33" d="M 160.5,39.5 C 158.139,43.0181 154.805,45.0181 150.5,45.5C 148.076,45.8076 145.743,45.4742 143.5,44.5C 144.763,42.9713 145.763,41.3046 146.5,39.5C 149.85,39.665 153.183,39.4983 156.5,39C 157.881,37.4658 159.214,37.6325 160.5,39.5 Z"/></g>
<g><path style="opacity:1" fill="#fcfcfc" d="M 360.5,146.5 C 360.5,271.167 360.5,395.833 360.5,520.5C 358.5,520.5 356.5,520.5 354.5,520.5C 354.5,524.833 354.5,529.167 354.5,533.5C 351.167,533.5 347.833,533.5 344.5,533.5C 344.5,531.833 344.5,530.167 344.5,528.5C 342.516,528.383 340.85,529.05 339.5,530.5C 337.275,528.89 334.941,527.557 332.5,526.5C 329.738,520.64 326.738,514.974 323.5,509.5C 316.202,493.567 307.369,478.567 297,464.5C 296.498,467.513 295.998,470.513 295.5,473.5C 294.433,475.964 293.1,478.297 291.5,480.5C 289.821,480.715 288.821,480.048 288.5,478.5C 292.867,470.677 293.534,462.677 290.5,454.5C 287.617,448.945 283.617,444.278 278.5,440.5C 278.489,438.983 277.823,437.816 276.5,437C 277.337,435.989 277.67,434.822 277.5,433.5C 276.5,433.5 275.5,433.5 274.5,433.5C 273.585,426.945 270.918,421.278 266.5,416.5C 262.969,410.122 258.802,404.122 254,398.5C 253.625,404.997 252.458,411.331 250.5,417.5C 249.163,418.315 248.163,419.482 247.5,421C 246.552,421.483 245.552,421.649 244.5,421.5C 246.09,416.559 247.59,411.559 249,406.5C 249.74,400.782 249.573,395.115 248.5,389.5C 246.674,384.511 244.841,379.511 243,374.5C 240.892,362.185 238.892,349.852 237,337.5C 232.833,327.165 225.333,320.665 214.5,318C 213.748,317.329 213.414,316.496 213.5,315.5C 221.898,315.113 228.732,318.446 234,325.5C 233.451,319.976 232.284,314.643 230.5,309.5C 227.81,299.409 224.81,289.409 221.5,279.5C 221.25,278.078 220.417,277.078 219,276.5C 218.814,273.964 218.314,271.631 217.5,269.5C 214.181,262.193 210.848,254.859 207.5,247.5C 204.317,239.631 201.984,231.631 200.5,223.5C 200.443,222.391 200.11,221.391 199.5,220.5C 188.817,200.818 175.817,182.818 160.5,166.5C 154.647,160.257 151.313,152.924 150.5,144.5C 148.64,132.937 143.307,123.437 134.5,116C 131.975,115.104 129.808,115.604 128,117.5C 127.246,122.963 127.746,128.296 129.5,133.5C 127.278,133.822 125.444,133.155 124,131.5C 125.766,143.031 130.266,153.364 137.5,162.5C 140.764,167.434 144.764,171.767 149.5,175.5C 157.315,188.132 163.815,201.465 169,215.5C 171.37,219.597 174.203,223.264 177.5,226.5C 178.793,228.296 180.293,229.963 182,231.5C 182.179,235.025 182.679,238.359 183.5,241.5C 183.549,245.078 184.215,248.411 185.5,251.5C 184.788,262.516 188.788,271.35 197.5,278C 199.65,279.411 201.984,280.245 204.5,280.5C 207.358,281.166 210.358,281.833 213.5,282.5C 209.217,283.492 204.884,283.826 200.5,283.5C 196.628,281.807 193.128,279.474 190,276.5C 189.886,281.174 188.72,285.507 186.5,289.5C 186.594,291.923 187.094,294.256 188,296.5C 189.802,297.789 190.969,299.456 191.5,301.5C 188.788,302.987 186.621,302.321 185,299.5C 183.534,296.268 182.367,292.935 181.5,289.5C 178.48,292.189 175.48,294.856 172.5,297.5C 171.504,297.586 170.671,297.252 170,296.5C 169.667,297.833 169.333,299.167 169,300.5C 167.301,299.594 165.467,299.261 163.5,299.5C 162.288,298.77 161.288,297.77 160.5,296.5C 157.812,297.513 155.146,298.513 152.5,299.5C 150.833,299.5 149.167,299.5 147.5,299.5C 147.5,298.167 147.5,296.833 147.5,295.5C 151.8,295.245 155.8,294.245 159.5,292.5C 169.15,288.562 171.317,282.228 166,273.5C 162.956,268.955 159.123,265.289 154.5,262.5C 150.425,257.922 146.092,253.422 141.5,249C 139.922,247.906 138.255,247.072 136.5,246.5C 135.504,246.414 134.671,246.748 134,247.5C 133.79,245.942 133.29,244.609 132.5,243.5C 131.969,241.376 130.635,239.876 128.5,239C 115.724,237.265 105.724,241.765 98.5,252.5C 95.7417,255.678 93.7417,259.345 92.5,263.5C 90.9942,266.356 90.3275,269.523 90.5,273C 90.5039,275.361 90.8373,277.527 91.5,279.5C 91.4676,287.096 94.1342,293.429 99.5,298.5C 102.092,302.471 105.759,304.971 110.5,306C 113.817,306.498 117.15,306.665 120.5,306.5C 122.262,306.643 123.929,306.309 125.5,305.5C 126.182,306.243 126.849,306.909 127.5,307.5C 130.473,308.81 132.807,310.81 134.5,313.5C 135.167,314.833 135.833,316.167 136.5,317.5C 135.552,318.978 134.219,319.978 132.5,320.5C 126.436,331.73 117.602,340.063 106,345.5C 103.188,351.963 102.688,358.63 104.5,365.5C 103.5,365.5 102.5,365.5 101.5,365.5C 100.211,360.92 99.2109,356.254 98.5,351.5C 92.5781,359.671 87.4115,368.337 83,377.5C 80.3167,380.016 77.8167,382.683 75.5,385.5C 82.0279,393.193 89.8612,399.193 99,403.5C 100.045,402.627 100.878,401.627 101.5,400.5C 105.332,396.836 109.332,393.336 113.5,390C 111.081,388.491 110.081,386.325 110.5,383.5C 114.131,384.608 117.131,386.774 119.5,390C 122.744,391.47 126.077,392.637 129.5,393.5C 141.113,401.776 152.446,410.443 163.5,419.5C 164.811,422.135 166.478,424.469 168.5,426.5C 169.682,431.542 172.349,435.542 176.5,438.5C 177.833,439.5 179.167,440.5 180.5,441.5C 180.179,443.048 179.179,443.715 177.5,443.5C 175.983,443.489 174.816,442.823 174,441.5C 173.552,445.071 174.052,448.404 175.5,451.5C 176.038,458.822 176.371,466.155 176.5,473.5C 175.859,474.482 175.193,475.482 174.5,476.5C 175.467,478.79 176.8,480.79 178.5,482.5C 177.345,489.321 177.179,496.321 178,503.5C 180.282,508.46 184.116,510.96 189.5,511C 191.009,514.669 189.676,516.169 185.5,515.5C 182.979,513.981 180.479,512.314 178,510.5C 178.003,517.531 178.67,524.531 180,531.5C 180.687,544.51 180.521,557.51 179.5,570.5C 179.621,573.441 180.287,576.108 181.5,578.5C 181.119,579.931 180.119,580.764 178.5,581C 179.056,581.383 179.389,581.883 179.5,582.5C 178.89,583.391 178.557,584.391 178.5,585.5C 176.783,588.845 176.116,592.511 176.5,596.5C 175.791,597.404 174.791,597.737 173.5,597.5C 173.5,596.167 173.5,594.833 173.5,593.5C 171.167,593.5 168.833,593.5 166.5,593.5C 163.171,593.736 160.171,592.903 157.5,591C 147.506,590.5 137.506,590.334 127.5,590.5C 127.5,589.167 127.5,587.833 127.5,586.5C 123.167,586.5 118.833,586.5 114.5,586.5C 114.5,584.5 114.5,582.5 114.5,580.5C 105.5,580.5 96.5,580.5 87.5,580.5C 87.5,578.167 87.5,575.833 87.5,573.5C 83.1667,573.5 78.8333,573.5 74.5,573.5C 74.5,571.167 74.5,568.833 74.5,566.5C 70.1667,566.5 65.8333,566.5 61.5,566.5C 61.5,564.5 61.5,562.5 61.5,560.5C 56.8333,560.5 52.1667,560.5 47.5,560.5C 47.5,555.833 47.5,551.167 47.5,546.5C 43.1667,546.5 38.8333,546.5 34.5,546.5C 34.5,544.5 34.5,542.5 34.5,540.5C 30.1667,540.5 25.8333,540.5 21.5,540.5C 21.6657,536.154 21.499,531.821 21,527.5C 16.5986,526.533 12.0986,526.2 7.5,526.5C 7.5,524.5 7.5,522.5 7.5,520.5C 5.5,520.5 3.5,520.5 1.5,520.5C 2.01017,517.612 1.34351,515.279 -0.5,513.5C -0.5,395.5 -0.5,277.5 -0.5,159.5C 2.16667,159.5 4.83333,159.5 7.5,159.5C 7.5,155.167 7.5,150.833 7.5,146.5C 12.1667,146.5 16.8333,146.5 21.5,146.5C 21.5,142.167 21.5,137.833 21.5,133.5C 25.8333,133.5 30.1667,133.5 34.5,133.5C 34.5,131.167 34.5,128.833 34.5,126.5C 38.8333,126.5 43.1667,126.5 47.5,126.5C 47.5,122.167 47.5,117.833 47.5,113.5C 51.8461,113.666 56.1794,113.499 60.5,113C 61.4231,110.959 61.7564,108.792 61.5,106.5C 65.8333,106.5 70.1667,106.5 74.5,106.5C 74.5,104.167 74.5,101.833 74.5,99.5C 83.5,99.5 92.5,99.5 101.5,99.5C 101.5,97.5 101.5,95.5 101.5,93.5C 105.833,93.5 110.167,93.5 114.5,93.5C 114.5,91.1667 114.5,88.8333 114.5,86.5C 127.833,86.5 141.167,86.5 154.5,86.5C 154.5,84.1667 154.5,81.8333 154.5,79.5C 181.167,79.5 207.833,79.5 234.5,79.5C 234.5,81.8333 234.5,84.1667 234.5,86.5C 238.833,86.5 243.167,86.5 247.5,86.5C 247.244,88.7925 247.577,90.9592 248.5,93C 257.16,93.4998 265.827,93.6664 274.5,93.5C 274.5,95.5 274.5,97.5 274.5,99.5C 278.833,99.5 283.167,99.5 287.5,99.5C 287.5,101.833 287.5,104.167 287.5,106.5C 296.5,106.5 305.5,106.5 314.5,106.5C 314.5,110.833 314.5,115.167 314.5,119.5C 318.833,119.5 323.167,119.5 327.5,119.5C 327.5,121.833 327.5,124.167 327.5,126.5C 332.167,126.5 336.833,126.5 341.5,126.5C 341.5,130.833 341.5,135.167 341.5,139.5C 345.833,139.5 350.167,139.5 354.5,139.5C 354.5,141.833 354.5,144.167 354.5,146.5C 356.5,146.5 358.5,146.5 360.5,146.5 Z"/></g>
<g><path style="opacity:1" fill="#242c32" d="M 150.5,144.5 C 150.21,151.016 149.543,157.35 148.5,163.5C 149.163,156.96 147.163,151.46 142.5,147C 140.655,145.872 138.655,145.372 136.5,145.5C 136.351,146.552 136.517,147.552 137,148.5C 139.744,149.74 141.577,151.74 142.5,154.5C 141.5,154.5 140.5,154.5 139.5,154.5C 137.564,157.004 136.897,159.67 137.5,162.5C 130.266,153.364 125.766,143.031 124,131.5C 125.444,133.155 127.278,133.822 129.5,133.5C 127.746,128.296 127.246,122.963 128,117.5C 129.808,115.604 131.975,115.104 134.5,116C 143.307,123.437 148.64,132.937 150.5,144.5 Z"/></g>
<g><path style="opacity:1" fill="#dfe9eb" d="M 148.5,163.5 C 147.432,164.434 146.099,164.768 144.5,164.5C 144.664,161.813 144.497,159.146 144,156.5C 143.722,155.584 143.222,154.918 142.5,154.5C 141.577,151.74 139.744,149.74 137,148.5C 136.517,147.552 136.351,146.552 136.5,145.5C 138.655,145.372 140.655,145.872 142.5,147C 147.163,151.46 149.163,156.96 148.5,163.5 Z"/></g>
<g><path style="opacity:1" fill="#3a4652" d="M 150.5,144.5 C 151.313,152.924 154.647,160.257 160.5,166.5C 158.965,168.052 157.131,169.385 155,170.5C 154.667,170.167 154.333,169.833 154,169.5C 151.898,171.095 150.398,173.095 149.5,175.5C 144.764,171.767 140.764,167.434 137.5,162.5C 136.897,159.67 137.564,157.004 139.5,154.5C 140.5,154.5 141.5,154.5 142.5,154.5C 143.222,154.918 143.722,155.584 144,156.5C 144.497,159.146 144.664,161.813 144.5,164.5C 146.099,164.768 147.432,164.434 148.5,163.5C 149.543,157.35 150.21,151.016 150.5,144.5 Z"/></g>
<g><path style="opacity:1" fill="#2f3337" d="M 107.5,218.5 C 106.167,218.5 105.5,217.833 105.5,216.5C 109.078,207.185 109.245,197.851 106,188.5C 97.4348,181.011 88.2681,180.511 78.5,187C 72.0388,191.295 66.3721,196.461 61.5,202.5C 60.8333,202.5 60.1667,202.5 59.5,202.5C 66.5232,191.648 76.1899,184.148 88.5,180C 98.8804,177.562 106.38,181.062 111,190.5C 112.115,200.137 110.949,209.471 107.5,218.5 Z"/></g>
<g><path style="opacity:1" fill="#465869" d="M 160.5,166.5 C 175.817,182.818 188.817,200.818 199.5,220.5C 197.24,217.736 194.74,215.069 192,212.5C 191.727,214.329 190.893,215.829 189.5,217C 186.751,218.123 184.251,219.623 182,221.5C 181.396,219.314 180.23,219.148 178.5,221C 179.167,221.333 179.833,221.667 180.5,222C 178.624,222.918 177.624,224.418 177.5,226.5C 174.203,223.264 171.37,219.597 169,215.5C 163.815,201.465 157.315,188.132 149.5,175.5C 150.398,173.095 151.898,171.095 154,169.5C 154.333,169.833 154.667,170.167 155,170.5C 157.131,169.385 158.965,168.052 160.5,166.5 Z"/></g>
<g><path style="opacity:1" fill="#e6eaec" d="M 105.5,216.5 C 99.5535,234.884 89.2202,250.384 74.5,263C 71.4671,265.208 68.1337,266.708 64.5,267.5C 61.8333,267.5 59.1667,267.5 56.5,267.5C 51.9102,266.079 48.7435,263.079 47,258.5C 48.2247,264.211 49.058,270.044 49.5,276C 49.4971,278.69 49.1638,281.19 48.5,283.5C 48.6658,278.821 48.4992,274.155 48,269.5C 47.7811,270.938 47.2811,272.271 46.5,273.5C 45.6517,269.698 44.985,265.865 44.5,262C 45.7861,258.474 45.7861,254.974 44.5,251.5C 44.3758,233.207 50.0425,216.874 61.5,202.5C 66.3721,196.461 72.0388,191.295 78.5,187C 88.2681,180.511 97.4348,181.011 106,188.5C 109.245,197.851 109.078,207.185 105.5,216.5 Z"/></g>
<g><path style="opacity:1" fill="#232c35" d="M 102.5,212.5 C 100.983,212.511 99.8159,213.177 99,214.5C 98.6667,213.5 98.3333,212.5 98,211.5C 95.0734,209.145 92.5734,206.478 90.5,203.5C 84.5839,200.306 78.2505,198.806 71.5,199C 72.2524,198.329 72.5858,197.496 72.5,196.5C 79.245,189.228 87.5784,186.061 97.5,187C 102.997,189.343 105.33,193.51 104.5,199.5C 104.54,203.964 103.873,208.297 102.5,212.5 Z"/></g>
<g><path style="opacity:1" fill="#35424e" d="M 72.5,196.5 C 72.5858,197.496 72.2524,198.329 71.5,199C 78.2505,198.806 84.5839,200.306 90.5,203.5C 92.5734,206.478 95.0734,209.145 98,211.5C 98.3333,212.5 98.6667,213.5 99,214.5C 99.8159,213.177 100.983,212.511 102.5,212.5C 101.03,216.912 99.3629,221.245 97.5,225.5C 96.9239,221.768 95.7572,218.102 94,214.5C 93.6667,214.833 93.3333,215.167 93,215.5C 88.5965,209.024 82.4298,206.191 74.5,207C 74,206.5 73.5,206 73,205.5C 70.9205,207.123 68.7538,208.623 66.5,210C 67.1667,210.333 67.8333,210.667 68.5,211C 67.2713,212.529 65.7713,213.696 64,214.5C 63.935,216.883 63.1017,217.55 61.5,216.5C 60.5224,216.977 59.6891,217.643 59,218.5C 57.4961,222.039 57.1628,225.705 58,229.5C 59.4502,232.008 60.6168,234.675 61.5,237.5C 64.0232,241.683 67.6899,244.35 72.5,245.5C 76.6905,243.207 81.1905,241.874 86,241.5C 86.7648,241.57 87.2648,241.903 87.5,242.5C 85.8802,246.082 83.5469,249.082 80.5,251.5C 80.5,250.167 80.5,248.833 80.5,247.5C 70.8427,248.124 63.176,244.624 57.5,237C 56.552,236.517 55.552,236.351 54.5,236.5C 54.3068,232.551 53.8068,232.551 53,236.5C 52.6667,235.5 52.3333,234.5 52,233.5C 51.7216,234.416 51.2216,235.082 50.5,235.5C 53.4311,219.967 60.7644,206.967 72.5,196.5 Z"/></g>
<g><path style="opacity:1" fill="#3d4c5c" d="M 97.5,225.5 C 94.9606,231.689 91.6273,237.356 87.5,242.5C 87.2648,241.903 86.7648,241.57 86,241.5C 81.1905,241.874 76.6905,243.207 72.5,245.5C 67.6899,244.35 64.0232,241.683 61.5,237.5C 60.6168,234.675 59.4502,232.008 58,229.5C 57.1628,225.705 57.4961,222.039 59,218.5C 59.6891,217.643 60.5224,216.977 61.5,216.5C 63.1017,217.55 63.935,216.883 64,214.5C 65.7713,213.696 67.2713,212.529 68.5,211C 67.8333,210.667 67.1667,210.333 66.5,210C 68.7538,208.623 70.9205,207.123 73,205.5C 73.5,206 74,206.5 74.5,207C 82.4298,206.191 88.5965,209.024 93,215.5C 93.3333,215.167 93.6667,214.833 94,214.5C 95.7572,218.102 96.9239,221.768 97.5,225.5 Z"/></g>
<g><path style="opacity:1" fill="#3d4b59" d="M 199.5,220.5 C 200.11,221.391 200.443,222.391 200.5,223.5C 199.778,223.918 199.278,224.584 199,225.5C 198.195,223.099 197.362,223.266 196.5,226C 194.065,227.715 191.398,228.882 188.5,229.5C 188.67,230.822 188.337,231.989 187.5,233C 186.049,232.737 184.716,232.904 183.5,233.5C 183.945,236.053 183.945,238.72 183.5,241.5C 182.679,238.359 182.179,235.025 182,231.5C 180.293,229.963 178.793,228.296 177.5,226.5C 177.624,224.418 178.624,222.918 180.5,222C 179.833,221.667 179.167,221.333 178.5,221C 180.23,219.148 181.396,219.314 182,221.5C 184.251,219.623 186.751,218.123 189.5,217C 190.893,215.829 191.727,214.329 192,212.5C 194.74,215.069 197.24,217.736 199.5,220.5 Z"/></g>
<g><path style="opacity:1" fill="#455768" d="M 73.5,214.5 C 78.0319,214.597 82.3653,215.597 86.5,217.5C 90.2993,222.059 91.2993,227.225 89.5,233C 84.104,237.072 78.104,238.406 71.5,237C 69.6667,235.5 67.8333,234 66,232.5C 63.4202,224.125 65.9202,218.125 73.5,214.5 Z"/></g>
<g><path style="opacity:1" fill="#303b47" d="M 200.5,223.5 C 201.984,231.631 204.317,239.631 207.5,247.5C 204.812,247.221 202.479,248.388 200.5,251C 195.515,254.011 190.515,254.178 185.5,251.5C 184.215,248.411 183.549,245.078 183.5,241.5C 183.945,238.72 183.945,236.053 183.5,233.5C 184.716,232.904 186.049,232.737 187.5,233C 188.337,231.989 188.67,230.822 188.5,229.5C 191.398,228.882 194.065,227.715 196.5,226C 197.362,223.266 198.195,223.099 199,225.5C 199.278,224.584 199.778,223.918 200.5,223.5 Z"/></g>
<g><path style="opacity:1" fill="#5a5c61" d="M 59.5,202.5 C 60.1667,202.5 60.8333,202.5 61.5,202.5C 50.0425,216.874 44.3758,233.207 44.5,251.5C 42.5572,232.913 47.5572,216.58 59.5,202.5 Z"/></g>
<g><path style="opacity:1" fill="#262d32" d="M 132.5,243.5 C 132.977,247.69 131.311,250.69 127.5,252.5C 120.413,246.961 112.747,246.127 104.5,250C 104.833,250.333 105.167,250.667 105.5,251C 104.096,252.337 102.596,253.503 101,254.5C 99.699,254.361 98.8656,253.695 98.5,252.5C 105.724,241.765 115.724,237.265 128.5,239C 130.635,239.876 131.969,241.376 132.5,243.5 Z"/></g>
<g><path style="opacity:1" fill="#2d3842" d="M 80.5,251.5 C 78.4309,254.573 75.7642,256.906 72.5,258.5C 73.0522,256.669 73.0522,255.003 72.5,253.5C 69.6345,252.818 67.1345,251.484 65,249.5C 64.7508,250.624 64.2508,251.624 63.5,252.5C 60.2138,249.692 56.5471,247.692 52.5,246.5C 52.067,243.834 51.567,241.168 51,238.5C 50.5007,243.489 50.3341,248.489 50.5,253.5C 49.1943,247.599 49.1943,241.599 50.5,235.5C 51.2216,235.082 51.7216,234.416 52,233.5C 52.3333,234.5 52.6667,235.5 53,236.5C 53.8068,232.551 54.3068,232.551 54.5,236.5C 55.552,236.351 56.552,236.517 57.5,237C 63.176,244.624 70.8427,248.124 80.5,247.5C 80.5,248.833 80.5,250.167 80.5,251.5 Z"/></g>
<g><path style="opacity:1" fill="#252c34" d="M 72.5,258.5 C 66.5022,264.185 60.0022,264.852 53,260.5C 51.5886,258.35 50.7553,256.016 50.5,253.5C 50.3341,248.489 50.5007,243.489 51,238.5C 51.567,241.168 52.067,243.834 52.5,246.5C 56.5471,247.692 60.2138,249.692 63.5,252.5C 64.2508,251.624 64.7508,250.624 65,249.5C 67.1345,251.484 69.6345,252.818 72.5,253.5C 73.0522,255.003 73.0522,256.669 72.5,258.5 Z"/></g>
<g><path style="opacity:1" fill="#2c353f" d="M 136.5,246.5 C 138.255,247.072 139.922,247.906 141.5,249C 146.092,253.422 150.425,257.922 154.5,262.5C 152.656,264.886 150.489,264.886 148,262.5C 143.733,263.296 139.399,263.962 135,264.5C 132.773,266.381 130.273,267.881 127.5,269C 126.421,270.859 125.088,272.359 123.5,273.5C 122.489,269.888 122.322,266.221 123,262.5C 126.7,258.465 130.7,254.798 135,251.5C 136.009,249.975 136.509,248.308 136.5,246.5 Z"/></g>
<g><path style="opacity:1" fill="#242b32" d="M 207.5,247.5 C 210.848,254.859 214.181,262.193 217.5,269.5C 217.917,278.487 213.584,282.153 204.5,280.5C 201.984,280.245 199.65,279.411 197.5,278C 188.788,271.35 184.788,262.516 185.5,251.5C 190.515,254.178 195.515,254.011 200.5,251C 202.479,248.388 204.812,247.221 207.5,247.5 Z"/></g>
<g><path style="opacity:1" fill="#3d4d5b" d="M 122.5,256.5 C 120.902,258.698 119.569,261.031 118.5,263.5C 117.691,265.292 117.191,267.292 117,269.5C 116.505,267.527 116.338,265.527 116.5,263.5C 114.116,263.557 111.782,263.223 109.5,262.5C 108.062,262.719 106.729,263.219 105.5,264C 101.388,270.023 101.722,275.69 106.5,281C 110.211,281.439 113.878,281.106 117.5,280C 118.833,279 118.833,278 117.5,277C 118.352,275.272 119.352,275.105 120.5,276.5C 121.418,278.82 122.752,280.987 124.5,283C 118.366,282.76 113.366,284.927 109.5,289.5C 96.3059,284.614 92.6393,275.614 98.5,262.5C 100.403,260.438 102.737,259.104 105.5,258.5C 106.246,257.264 106.579,255.93 106.5,254.5C 109.909,254.751 113.242,254.417 116.5,253.5C 117.971,254.381 118.804,255.714 119,257.5C 120.011,256.663 121.178,256.33 122.5,256.5 Z"/></g>
<g><path style="opacity:1" fill="#485a6a" d="M 118.5,263.5 C 118.15,268.031 118.817,272.364 120.5,276.5C 119.352,275.105 118.352,275.272 117.5,277C 118.833,278 118.833,279 117.5,280C 113.878,281.106 110.211,281.439 106.5,281C 101.722,275.69 101.388,270.023 105.5,264C 106.729,263.219 108.062,262.719 109.5,262.5C 111.782,263.223 114.116,263.557 116.5,263.5C 116.338,265.527 116.505,267.527 117,269.5C 117.191,267.292 117.691,265.292 118.5,263.5 Z"/></g>
<g><path style="opacity:1" fill="#585d64" d="M 105.5,216.5 C 105.5,217.833 106.167,218.5 107.5,218.5C 99.9955,239.503 87.1622,256.503 69,269.5C 64.553,276.733 60.3863,284.067 56.5,291.5C 56.1667,291.5 55.8333,291.5 55.5,291.5C 58.1284,284.91 61.2951,278.577 65,272.5C 65.765,270.934 65.5983,269.601 64.5,268.5C 64.5,268.167 64.5,267.833 64.5,267.5C 68.1337,266.708 71.4671,265.208 74.5,263C 89.2202,250.384 99.5535,234.884 105.5,216.5 Z"/></g>
<g><path style="opacity:1" fill="#969a99" d="M 56.5,267.5 C 59.1667,267.5 61.8333,267.5 64.5,267.5C 64.5,267.833 64.5,268.167 64.5,268.5C 62.9668,269.431 61.3002,270.098 59.5,270.5C 57.9623,270.547 56.9623,269.88 56.5,268.5C 56.5,268.167 56.5,267.833 56.5,267.5 Z"/></g>
<g><path style="opacity:1" fill="#82868e" d="M 92.5,263.5 C 91.7255,268.797 91.3921,274.13 91.5,279.5C 90.8373,277.527 90.5039,275.361 90.5,273C 90.3275,269.523 90.9942,266.356 92.5,263.5 Z"/></g>
<g><path style="opacity:1" fill="#f3f6f7" d="M 56.5,268.5 C 56.9623,269.88 57.9623,270.547 59.5,270.5C 61.3002,270.098 62.9668,269.431 64.5,268.5C 65.5983,269.601 65.765,270.934 65,272.5C 61.2951,278.577 58.1284,284.91 55.5,291.5C 54.6255,293.69 52.9589,294.69 50.5,294.5C 50.5,292.833 50.5,291.167 50.5,289.5C 52.1173,284.084 52.784,278.417 52.5,272.5C 52.1667,269.5 53.5,268.167 56.5,268.5 Z"/></g>
<g><path style="opacity:1" fill="#454a4b" d="M 59.5,274.5 C 58.8333,275.833 58.1667,277.167 57.5,278.5C 56.5655,277.432 56.2322,276.099 56.5,274.5C 57.5,274.5 58.5,274.5 59.5,274.5 Z"/></g>
<g><path style="opacity:1" fill="#909696" d="M 59.5,274.5 C 58.5,274.5 57.5,274.5 56.5,274.5C 56.2322,276.099 56.5655,277.432 57.5,278.5C 57.0133,279.473 56.5133,280.473 56,281.5C 55.5026,278.854 55.3359,276.187 55.5,273.5C 57.099,273.232 58.4324,273.566 59.5,274.5 Z"/></g>
<g><path style="opacity:1" fill="#374553" d="M 154.5,262.5 C 159.123,265.289 162.956,268.955 166,273.5C 171.317,282.228 169.15,288.562 159.5,292.5C 157.856,292.286 156.356,292.62 155,293.5C 154.93,288.678 154.597,283.678 154,278.5C 145.381,272.441 137.381,273.441 130,281.5C 129.29,280.027 128.124,279.36 126.5,279.5C 125.529,277.517 124.529,275.517 123.5,273.5C 125.088,272.359 126.421,270.859 127.5,269C 130.273,267.881 132.773,266.381 135,264.5C 139.399,263.962 143.733,263.296 148,262.5C 150.489,264.886 152.656,264.886 154.5,262.5 Z"/></g>
<g><path style="opacity:1" fill="#a5a8ad" d="M 52.5,272.5 C 52.784,278.417 52.1173,284.084 50.5,289.5C 50.596,283.627 51.2627,277.96 52.5,272.5 Z"/></g>
<g><path style="opacity:1" fill="#455768" d="M 159.5,292.5 C 155.8,294.245 151.8,295.245 147.5,295.5C 147.5,296.833 147.5,298.167 147.5,299.5C 149.167,299.5 150.833,299.5 152.5,299.5C 149.695,300.319 146.695,300.819 143.5,301C 143.833,301.333 144.167,301.667 144.5,302C 140.398,304.011 136.398,303.845 132.5,301.5C 133.219,299.236 133.552,296.903 133.5,294.5C 132.5,294.5 131.5,294.5 130.5,294.5C 129.962,292.883 129.629,291.216 129.5,289.5C 128.07,289.421 126.736,289.754 125.5,290.5C 124.304,290.154 124.304,289.654 125.5,289C 123.19,288.503 120.857,288.337 118.5,288.5C 122.67,287.543 127.003,287.543 131.5,288.5C 130.307,285.289 128.641,282.289 126.5,279.5C 128.124,279.36 129.29,280.027 130,281.5C 137.381,273.441 145.381,272.441 154,278.5C 154.597,283.678 154.93,288.678 155,293.5C 156.356,292.62 157.856,292.286 159.5,292.5 Z"/></g>
<g><path style="opacity:1" fill="#d7ddde" d="M 217.5,269.5 C 218.314,271.631 218.814,273.964 219,276.5C 220.417,277.078 221.25,278.078 221.5,279.5C 219.068,280.75 216.734,282.25 214.5,284C 209.648,284.815 204.981,284.648 200.5,283.5C 204.884,283.826 209.217,283.492 213.5,282.5C 210.358,281.833 207.358,281.166 204.5,280.5C 213.584,282.153 217.917,278.487 217.5,269.5 Z"/></g>
<g><path style="opacity:1" fill="#262f37" d="M 200.5,283.5 C 204.981,284.648 209.648,284.815 214.5,284C 216.734,282.25 219.068,280.75 221.5,279.5C 224.81,289.409 227.81,299.409 230.5,309.5C 230.539,310.756 230.039,311.756 229,312.5C 225.709,311.736 222.543,310.569 219.5,309C 213.689,308.754 208.023,307.754 202.5,306C 200.951,304.786 199.785,303.286 199,301.5C 196.293,304.059 193.793,304.059 191.5,301.5C 190.969,299.456 189.802,297.789 188,296.5C 187.094,294.256 186.594,291.923 186.5,289.5C 188.72,285.507 189.886,281.174 190,276.5C 193.128,279.474 196.628,281.807 200.5,283.5 Z"/></g>
<g><path style="opacity:1" fill="#303c47" d="M 127.5,252.5 C 126.055,254.063 124.389,255.396 122.5,256.5C 121.178,256.33 120.011,256.663 119,257.5C 118.804,255.714 117.971,254.381 116.5,253.5C 113.242,254.417 109.909,254.751 106.5,254.5C 106.579,255.93 106.246,257.264 105.5,258.5C 102.737,259.104 100.403,260.438 98.5,262.5C 92.6393,275.614 96.3059,284.614 109.5,289.5C 109.166,292.188 109.832,294.521 111.5,296.5C 107.61,298.252 103.61,298.919 99.5,298.5C 94.1342,293.429 91.4676,287.096 91.5,279.5C 91.3921,274.13 91.7255,268.797 92.5,263.5C 93.7417,259.345 95.7417,255.678 98.5,252.5C 98.8656,253.695 99.699,254.361 101,254.5C 102.596,253.503 104.096,252.337 105.5,251C 105.167,250.667 104.833,250.333 104.5,250C 112.747,246.127 120.413,246.961 127.5,252.5 Z"/></g>
<g><path style="opacity:1" fill="#3c4852" d="M 118.5,288.5 C 120.857,288.337 123.19,288.503 125.5,289C 124.304,289.654 124.304,290.154 125.5,290.5C 126.736,289.754 128.07,289.421 129.5,289.5C 129.629,291.216 129.962,292.883 130.5,294.5C 129.885,299.152 127.219,300.652 122.5,299C 119.582,297.291 116.748,295.458 114,293.5C 113.523,290.279 115.023,288.612 118.5,288.5 Z"/></g>
<g><path style="opacity:1" fill="#282e32" d="M 111.5,296.5 C 115.177,299.34 119.177,301.673 123.5,303.5C 122.66,304.735 121.66,305.735 120.5,306.5C 117.15,306.665 113.817,306.498 110.5,306C 105.759,304.971 102.092,302.471 99.5,298.5C 103.61,298.919 107.61,298.252 111.5,296.5 Z"/></g>
<g><path style="opacity:1" fill="#eaeff2" d="M 132.5,243.5 C 133.29,244.609 133.79,245.942 134,247.5C 134.671,246.748 135.504,246.414 136.5,246.5C 136.509,248.308 136.009,249.975 135,251.5C 130.7,254.798 126.7,258.465 123,262.5C 122.322,266.221 122.489,269.888 123.5,273.5C 124.529,275.517 125.529,277.517 126.5,279.5C 128.641,282.289 130.307,285.289 131.5,288.5C 127.003,287.543 122.67,287.543 118.5,288.5C 115.023,288.612 113.523,290.279 114,293.5C 116.748,295.458 119.582,297.291 122.5,299C 127.219,300.652 129.885,299.152 130.5,294.5C 131.5,294.5 132.5,294.5 133.5,294.5C 133.552,296.903 133.219,299.236 132.5,301.5C 129.354,302.31 127.687,304.31 127.5,307.5C 126.849,306.909 126.182,306.243 125.5,305.5C 123.929,306.309 122.262,306.643 120.5,306.5C 121.66,305.735 122.66,304.735 123.5,303.5C 119.177,301.673 115.177,299.34 111.5,296.5C 109.832,294.521 109.166,292.188 109.5,289.5C 113.366,284.927 118.366,282.76 124.5,283C 122.752,280.987 121.418,278.82 120.5,276.5C 118.817,272.364 118.15,268.031 118.5,263.5C 119.569,261.031 120.902,258.698 122.5,256.5C 124.389,255.396 126.055,254.063 127.5,252.5C 131.311,250.69 132.977,247.69 132.5,243.5 Z"/></g>
<g><path style="opacity:1" fill="#323539" d="M 56.5,267.5 C 56.5,267.833 56.5,268.167 56.5,268.5C 53.5,268.167 52.1667,269.5 52.5,272.5C 51.2627,277.96 50.596,283.627 50.5,289.5C 50.5,291.167 50.5,292.833 50.5,294.5C 52.9589,294.69 54.6255,293.69 55.5,291.5C 55.8333,291.5 56.1667,291.5 56.5,291.5C 54.4928,297.51 52.4928,303.51 50.5,309.5C 48.8333,309.5 47.1667,309.5 45.5,309.5C 47.47,300.951 48.47,292.284 48.5,283.5C 49.1638,281.19 49.4971,278.69 49.5,276C 49.058,270.044 48.2247,264.211 47,258.5C 48.7435,263.079 51.9102,266.079 56.5,267.5 Z"/></g>
<g><path style="opacity:1" fill="#3a4654" d="M 163.5,299.5 C 163.833,300.167 164.167,300.833 164.5,301.5C 159.206,304.153 154.206,307.153 149.5,310.5C 144.276,311.081 139.276,312.081 134.5,313.5C 132.807,310.81 130.473,308.81 127.5,307.5C 127.687,304.31 129.354,302.31 132.5,301.5C 136.398,303.845 140.398,304.011 144.5,302C 144.167,301.667 143.833,301.333 143.5,301C 146.695,300.819 149.695,300.319 152.5,299.5C 155.146,298.513 157.812,297.513 160.5,296.5C 161.288,297.77 162.288,298.77 163.5,299.5 Z"/></g>
<g><path style="opacity:1" fill="#303a44" d="M 191.5,301.5 C 193.793,304.059 196.293,304.059 199,301.5C 199.785,303.286 200.951,304.786 202.5,306C 208.023,307.754 213.689,308.754 219.5,309C 222.543,310.569 225.709,311.736 229,312.5C 230.039,311.756 230.539,310.756 230.5,309.5C 232.284,314.643 233.451,319.976 234,325.5C 228.732,318.446 221.898,315.113 213.5,315.5C 211.155,318.075 208.155,319.075 204.5,318.5C 204.5,317.167 204.5,315.833 204.5,314.5C 197.632,314.805 190.965,313.805 184.5,311.5C 182.754,311.971 181.087,312.638 179.5,313.5C 177.878,311.146 176.378,311.146 175,313.5C 174.685,310.853 173.518,310.187 171.5,311.5C 170.614,310.675 170.281,309.675 170.5,308.5C 170.984,304.768 171.651,301.101 172.5,297.5C 175.48,294.856 178.48,292.189 181.5,289.5C 182.367,292.935 183.534,296.268 185,299.5C 186.621,302.321 188.788,302.987 191.5,301.5 Z"/></g>
<g><path style="opacity:1" fill="#2c3841" d="M 164.5,301.5 C 165.693,301.97 166.36,302.97 166.5,304.5C 166.14,307.702 165.474,310.702 164.5,313.5C 164.539,312.244 164.039,311.244 163,310.5C 160.113,311.548 157.613,313.214 155.5,315.5C 150.807,317.219 146.14,318.885 141.5,320.5C 140.757,321.182 140.091,321.849 139.5,322.5C 138.687,320.739 137.687,319.072 136.5,317.5C 135.833,316.167 135.167,314.833 134.5,313.5C 139.276,312.081 144.276,311.081 149.5,310.5C 154.206,307.153 159.206,304.153 164.5,301.5 Z"/></g>
<g><path style="opacity:1" fill="#34414e" d="M 170.5,308.5 C 170.281,309.675 170.614,310.675 171.5,311.5C 173.518,310.187 174.685,310.853 175,313.5C 176.378,311.146 177.878,311.146 179.5,313.5C 181.087,312.638 182.754,311.971 184.5,311.5C 190.965,313.805 197.632,314.805 204.5,314.5C 204.5,315.833 204.5,317.167 204.5,318.5C 208.155,319.075 211.155,318.075 213.5,315.5C 213.414,316.496 213.748,317.329 214.5,318C 225.333,320.665 232.833,327.165 237,337.5C 238.892,349.852 240.892,362.185 243,374.5C 244.841,379.511 246.674,384.511 248.5,389.5C 246.929,388.803 245.429,388.47 244,388.5C 242.675,393.324 239.509,395.657 234.5,395.5C 234.187,398.247 234.52,400.914 235.5,403.5C 236.675,402.145 237.675,402.312 238.5,404C 237.437,405.188 236.103,405.688 234.5,405.5C 234.5,406.5 234.5,407.5 234.5,408.5C 231.09,408.384 229.756,410.05 230.5,413.5C 229.5,413.5 228.5,413.5 227.5,413.5C 226.727,417.918 225.06,421.918 222.5,425.5C 221.264,424.754 219.93,424.421 218.5,424.5C 218.037,427.482 217.704,430.482 217.5,433.5C 213.167,433.5 208.833,433.5 204.5,433.5C 204.5,435.5 204.5,437.5 204.5,439.5C 201.338,438.916 198.338,439.583 195.5,441.5C 190.5,441.5 185.5,441.5 180.5,441.5C 179.167,440.5 177.833,439.5 176.5,438.5C 177.968,437.221 178.635,435.554 178.5,433.5C 180.5,433.5 182.5,433.5 184.5,433.5C 184.64,431.876 183.973,430.71 182.5,430C 185.351,428.711 188.351,428.211 191.5,428.5C 191.5,427.5 191.5,426.5 191.5,425.5C 193.92,425.708 196.253,425.374 198.5,424.5C 199.333,425.5 200.167,426.5 201,427.5C 201.324,425.431 202.158,425.098 203.5,426.5C 206.172,425.499 208.839,424.499 211.5,423.5C 213.69,421.993 215.024,419.993 215.5,417.5C 216.822,417.67 217.989,417.337 219,416.5C 218.782,414.413 218.949,412.413 219.5,410.5C 220.386,411.325 220.719,412.325 220.5,413.5C 222.167,413.5 223.833,413.5 225.5,413.5C 225.939,410.182 225.939,407.016 225.5,404C 229.037,398.193 231.037,391.86 231.5,385C 232.01,383.174 232.844,383.007 234,384.5C 234.684,382.521 234.184,380.854 232.5,379.5C 233.651,378.269 234.817,378.269 236,379.5C 236.5,379 237,378.5 237.5,378C 236.095,376.731 234.429,376.231 232.5,376.5C 231.663,367.953 229.996,359.619 227.5,351.5C 226.5,351.5 225.5,351.5 224.5,351.5C 224.274,345.61 221.274,342.277 215.5,341.5C 215.276,334.32 211.61,330.986 204.5,331.5C 204.5,330.5 204.5,329.5 204.5,328.5C 199.017,327.695 193.683,326.361 188.5,324.5C 188.5,323.5 188.5,322.5 188.5,321.5C 182.833,321.5 177.167,321.5 171.5,321.5C 171.5,322.5 171.5,323.5 171.5,324.5C 170.167,324.5 168.833,324.5 167.5,324.5C 167.704,321.482 168.037,318.482 168.5,315.5C 168.927,312.99 169.593,310.657 170.5,308.5 Z"/></g>
<g><path style="opacity:1" fill="#232c32" d="M 164.5,313.5 C 163.035,318.561 161.368,323.561 159.5,328.5C 153.794,329.792 148.127,329.625 142.5,328C 140.658,326.654 139.658,324.821 139.5,322.5C 140.091,321.849 140.757,321.182 141.5,320.5C 146.14,318.885 150.807,317.219 155.5,315.5C 157.613,313.214 160.113,311.548 163,310.5C 164.039,311.244 164.539,312.244 164.5,313.5 Z"/></g>
<g><path style="opacity:1" fill="#434f5b" d="M 40.5,338.5 C 40.5,337.5 40.5,336.5 40.5,335.5C 38.1137,335.741 36.1137,335.075 34.5,333.5C 36.6156,325.941 39.2822,318.608 42.5,311.5C 44.7098,312.766 46.7098,314.266 48.5,316C 46.0949,323.723 43.4283,331.223 40.5,338.5 Z"/></g>
<g><path style="opacity:1" fill="#6c6a6f" d="M 30.5,325.5 C 32.9725,326.749 33.1391,328.415 31,330.5C 29.2116,328.977 29.0449,327.31 30.5,325.5 Z"/></g>
<g><path style="opacity:1" fill="#e7eeef" d="M 172.5,297.5 C 171.651,301.101 170.984,304.768 170.5,308.5C 169.593,310.657 168.927,312.99 168.5,315.5C 166.932,321.198 164.932,326.865 162.5,332.5C 163.171,335.185 163.838,337.852 164.5,340.5C 166.735,349.317 171.235,356.651 178,362.5C 178.483,363.448 178.649,364.448 178.5,365.5C 173.433,364.288 169.6,361.288 167,356.5C 163.543,349.462 160.876,342.128 159,334.5C 155.943,333.549 152.777,333.216 149.5,333.5C 146.687,333.452 144.021,332.785 141.5,331.5C 140.482,332.193 139.482,332.859 138.5,333.5C 137.883,333.389 137.383,333.056 137,332.5C 136.667,329.833 136.333,327.167 136,324.5C 135.502,322.456 134.335,321.122 132.5,320.5C 134.219,319.978 135.552,318.978 136.5,317.5C 137.687,319.072 138.687,320.739 139.5,322.5C 139.658,324.821 140.658,326.654 142.5,328C 148.127,329.625 153.794,329.792 159.5,328.5C 161.368,323.561 163.035,318.561 164.5,313.5C 165.474,310.702 166.14,307.702 166.5,304.5C 166.36,302.97 165.693,301.97 164.5,301.5C 164.167,300.833 163.833,300.167 163.5,299.5C 165.467,299.261 167.301,299.594 169,300.5C 169.333,299.167 169.667,297.833 170,296.5C 170.671,297.252 171.504,297.586 172.5,297.5 Z"/></g>
<g><path style="opacity:1" fill="#35414e" d="M 132.5,320.5 C 134.335,321.122 135.502,322.456 136,324.5C 136.333,327.167 136.667,329.833 137,332.5C 137.383,333.056 137.883,333.389 138.5,333.5C 139.984,334.473 140.484,335.807 140,337.5C 137.384,338.653 134.718,339.653 132,340.5C 131.505,343.531 131.671,346.531 132.5,349.5C 131.5,349.5 130.5,349.5 129.5,349.5C 129.5,350.833 129.5,352.167 129.5,353.5C 127.143,353.337 124.81,353.503 122.5,354C 123.5,354.333 124.5,354.667 125.5,355C 124.333,356.167 123.167,357.333 122,358.5C 121.396,356.314 120.23,356.148 118.5,358C 119.056,358.383 119.389,358.883 119.5,359.5C 117.113,363.387 116.946,367.387 119,371.5C 122.693,377.691 127.526,382.691 133.5,386.5C 134.779,390.239 133.445,392.572 129.5,393.5C 126.077,392.637 122.744,391.47 119.5,390C 117.131,386.774 114.131,384.608 110.5,383.5C 110.081,386.325 111.081,388.491 113.5,390C 109.332,393.336 105.332,396.836 101.5,400.5C 101.084,397.64 102.084,395.474 104.5,394C 103.576,392.85 103.576,391.85 104.5,391C 103.19,388.384 101.524,386.051 99.5,384C 100.916,378.364 102.582,372.697 104.5,367C 103.263,366.768 102.263,366.268 101.5,365.5C 102.5,365.5 103.5,365.5 104.5,365.5C 102.688,358.63 103.188,351.963 106,345.5C 117.602,340.063 126.436,331.73 132.5,320.5 Z"/></g>
<g><path style="opacity:1" fill="#3c4c5c" d="M 149.5,333.5 C 151.948,334.473 154.615,334.806 157.5,334.5C 157.579,336.666 158.246,338.666 159.5,340.5C 158.176,341.006 157.509,342.339 157.5,344.5C 154.147,345.898 150.813,347.398 147.5,349C 146.62,350.356 146.286,351.856 146.5,353.5C 145.167,353.5 143.833,353.5 142.5,353.5C 141.793,356.786 141.46,360.119 141.5,363.5C 140.5,363.5 139.5,363.5 138.5,363.5C 138.5,364.5 138.5,365.5 138.5,366.5C 135.833,366.5 133.167,366.5 130.5,366.5C 130.335,369.85 130.502,373.183 131,376.5C 132.14,378.279 133.307,379.946 134.5,381.5C 125.183,376.856 121.183,369.523 122.5,359.5C 121.5,359.5 120.5,359.5 119.5,359.5C 119.389,358.883 119.056,358.383 118.5,358C 120.23,356.148 121.396,356.314 122,358.5C 123.167,357.333 124.333,356.167 125.5,355C 124.5,354.667 123.5,354.333 122.5,354C 124.81,353.503 127.143,353.337 129.5,353.5C 129.5,352.167 129.5,350.833 129.5,349.5C 130.5,349.5 131.5,349.5 132.5,349.5C 131.671,346.531 131.505,343.531 132,340.5C 134.718,339.653 137.384,338.653 140,337.5C 140.484,335.807 139.984,334.473 138.5,333.5C 139.482,332.859 140.482,332.193 141.5,331.5C 144.021,332.785 146.687,333.452 149.5,333.5 Z"/></g>
<g><path style="opacity:1" fill="#2c3137" d="M 34.5,333.5 C 36.1137,335.075 38.1137,335.741 40.5,335.5C 40.5,336.5 40.5,337.5 40.5,338.5C 38.2446,340.38 35.5779,341.38 32.5,341.5C 32.2826,338.579 32.9493,335.913 34.5,333.5 Z"/></g>
<g><path style="opacity:1" fill="#666a71" d="M 45.5,337.5 C 46.6225,339.288 46.7891,341.288 46,343.5C 44.2002,341.635 44.0336,339.635 45.5,337.5 Z"/></g>
<g><path style="opacity:1" fill="#2b3236" d="M 28.5,341.5 C 28.1788,343.048 27.1788,343.715 25.5,343.5C 25.3239,346.727 24.6572,349.727 23.5,352.5C 21.6509,348.36 21.1509,344.026 22,339.5C 27.9261,332.327 30.0928,332.994 28.5,341.5 Z"/></g>
<g><path style="opacity:1" fill="#42505d" d="M 28.5,341.5 C 29.9544,343.458 31.621,345.291 33.5,347C 35.4175,351.993 34.0842,355.826 29.5,358.5C 28.3774,357.243 27.7107,357.576 27.5,359.5C 25.9291,357.365 24.5957,355.032 23.5,352.5C 24.6572,349.727 25.3239,346.727 25.5,343.5C 27.1788,343.715 28.1788,343.048 28.5,341.5 Z"/></g>
<g><path style="opacity:1" fill="#445768" d="M 149.5,333.5 C 152.777,333.216 155.943,333.549 159,334.5C 160.876,342.128 163.543,349.462 167,356.5C 169.6,361.288 173.433,364.288 178.5,365.5C 178.649,364.448 178.483,363.448 178,362.5C 171.235,356.651 166.735,349.317 164.5,340.5C 167.79,342.232 171.457,343.232 175.5,343.5C 178.622,343.149 181.622,342.482 184.5,341.5C 184.5,342.5 184.5,343.5 184.5,344.5C 186.527,344.338 188.527,344.505 190.5,345C 192.646,346.602 194.98,347.768 197.5,348.5C 197.5,349.5 197.5,350.5 197.5,351.5C 198.675,351.281 199.675,351.614 200.5,352.5C 202.359,355.124 204.359,357.624 206.5,360C 210.65,359.685 212.317,361.852 211.5,366.5C 212.5,366.5 213.5,366.5 214.5,366.5C 213.554,373.151 212.554,379.818 211.5,386.5C 209.224,389.782 207.89,393.449 207.5,397.5C 206.5,398.167 205.5,398.833 204.5,399.5C 205.025,400.192 205.692,400.692 206.5,401C 202.795,401.04 200.628,402.873 200,406.5C 199.667,405.5 199.333,404.5 199,403.5C 198.691,404.766 198.191,405.933 197.5,407C 188.194,412.117 178.194,415.117 167.5,416C 165.907,416.949 164.574,418.115 163.5,419.5C 152.446,410.443 141.113,401.776 129.5,393.5C 133.445,392.572 134.779,390.239 133.5,386.5C 137.62,389.063 141.953,391.396 146.5,393.5C 147.5,393.167 148.167,392.5 148.5,391.5C 143.804,388.157 139.137,384.824 134.5,381.5C 133.307,379.946 132.14,378.279 131,376.5C 130.502,373.183 130.335,369.85 130.5,366.5C 133.167,366.5 135.833,366.5 138.5,366.5C 138.5,365.5 138.5,364.5 138.5,363.5C 139.5,363.5 140.5,363.5 141.5,363.5C 141.46,360.119 141.793,356.786 142.5,353.5C 143.833,353.5 145.167,353.5 146.5,353.5C 146.286,351.856 146.62,350.356 147.5,349C 150.813,347.398 154.147,345.898 157.5,344.5C 157.509,342.339 158.176,341.006 159.5,340.5C 158.246,338.666 157.579,336.666 157.5,334.5C 154.615,334.806 151.948,334.473 149.5,333.5 Z"/></g>
<g><path style="opacity:1" fill="#3e4e5f" d="M 168.5,315.5 C 168.037,318.482 167.704,321.482 167.5,324.5C 166.913,325.767 166.913,326.767 167.5,327.5C 170.166,326.262 172.832,326.262 175.5,327.5C 175.291,328.086 174.957,328.586 174.5,329C 175.687,330.019 176.687,331.186 177.5,332.5C 185.72,332.985 193.72,334.318 201.5,336.5C 201.5,337.5 201.5,338.5 201.5,339.5C 202.5,339.5 203.5,339.5 204.5,339.5C 204.5,341.833 204.5,344.167 204.5,346.5C 208.863,348.186 211.029,351.519 211,356.5C 217.023,360.518 219.189,366.185 217.5,373.5C 218.5,373.5 219.5,373.5 220.5,373.5C 221.15,384.65 217.817,394.317 210.5,402.5C 209.675,403.386 208.675,403.719 207.5,403.5C 207.5,404.5 207.5,405.5 207.5,406.5C 208.873,406.343 210.207,406.51 211.5,407C 209.82,409.398 207.486,410.565 204.5,410.5C 204.5,411.5 204.5,412.5 204.5,413.5C 197.833,414.833 191.167,416.167 184.5,417.5C 184.5,418.5 184.5,419.5 184.5,420.5C 178.779,419.241 174.446,421.074 171.5,426C 170.552,426.483 169.552,426.649 168.5,426.5C 166.478,424.469 164.811,422.135 163.5,419.5C 164.574,418.115 165.907,416.949 167.5,416C 178.194,415.117 188.194,412.117 197.5,407C 198.191,405.933 198.691,404.766 199,403.5C 199.333,404.5 199.667,405.5 200,406.5C 200.628,402.873 202.795,401.04 206.5,401C 205.692,400.692 205.025,400.192 204.5,399.5C 205.5,398.833 206.5,398.167 207.5,397.5C 207.89,393.449 209.224,389.782 211.5,386.5C 212.554,379.818 213.554,373.151 214.5,366.5C 213.5,366.5 212.5,366.5 211.5,366.5C 212.317,361.852 210.65,359.685 206.5,360C 204.359,357.624 202.359,355.124 200.5,352.5C 199.675,351.614 198.675,351.281 197.5,351.5C 197.5,350.5 197.5,349.5 197.5,348.5C 194.98,347.768 192.646,346.602 190.5,345C 188.527,344.505 186.527,344.338 184.5,344.5C 184.5,343.5 184.5,342.5 184.5,341.5C 181.622,342.482 178.622,343.149 175.5,343.5C 171.457,343.232 167.79,342.232 164.5,340.5C 163.838,337.852 163.171,335.185 162.5,332.5C 164.932,326.865 166.932,321.198 168.5,315.5 Z"/></g>
<g><path style="opacity:1" fill="#333c47" d="M 27.5,359.5 C 27.7107,357.576 28.3774,357.243 29.5,358.5C 30.1935,361.838 31.8601,362.338 34.5,360C 36.747,358.005 37.747,355.505 37.5,352.5C 38.5,352.5 39.5,352.5 40.5,352.5C 39.5,349.833 38.5,347.167 37.5,344.5C 43.448,345.618 46.948,349.285 48,355.5C 48.6667,358.5 48.6667,361.5 48,364.5C 43.1827,367.267 38.016,368.101 32.5,367C 30.6113,364.618 28.9447,362.118 27.5,359.5 Z"/></g>
<g><path style="opacity:1" fill="#e9eff2" d="M 119.5,359.5 C 120.5,359.5 121.5,359.5 122.5,359.5C 121.183,369.523 125.183,376.856 134.5,381.5C 139.137,384.824 143.804,388.157 148.5,391.5C 148.167,392.5 147.5,393.167 146.5,393.5C 141.953,391.396 137.62,389.063 133.5,386.5C 127.526,382.691 122.693,377.691 119,371.5C 116.946,367.387 117.113,363.387 119.5,359.5 Z"/></g>
<g><path style="opacity:1" fill="#2b353f" d="M 101.5,365.5 C 102.263,366.268 103.263,366.768 104.5,367C 102.582,372.697 100.916,378.364 99.5,384C 101.524,386.051 103.19,388.384 104.5,391C 103.576,391.85 103.576,392.85 104.5,394C 102.084,395.474 101.084,397.64 101.5,400.5C 100.878,401.627 100.045,402.627 99,403.5C 89.8612,399.193 82.0279,393.193 75.5,385.5C 77.8167,382.683 80.3167,380.016 83,377.5C 87.4115,368.337 92.5781,359.671 98.5,351.5C 99.2109,356.254 100.211,360.92 101.5,365.5 Z"/></g>
<g><path style="opacity:1" fill="#394958" d="M 176.5,438.5 C 172.349,435.542 169.682,431.542 168.5,426.5C 169.552,426.649 170.552,426.483 171.5,426C 174.446,421.074 178.779,419.241 184.5,420.5C 184.5,419.5 184.5,418.5 184.5,417.5C 191.167,416.167 197.833,414.833 204.5,413.5C 204.5,412.5 204.5,411.5 204.5,410.5C 207.486,410.565 209.82,409.398 211.5,407C 210.207,406.51 208.873,406.343 207.5,406.5C 207.5,405.5 207.5,404.5 207.5,403.5C 208.675,403.719 209.675,403.386 210.5,402.5C 217.817,394.317 221.15,384.65 220.5,373.5C 219.5,373.5 218.5,373.5 217.5,373.5C 219.189,366.185 217.023,360.518 211,356.5C 211.029,351.519 208.863,348.186 204.5,346.5C 204.5,344.167 204.5,341.833 204.5,339.5C 203.5,339.5 202.5,339.5 201.5,339.5C 201.5,338.5 201.5,337.5 201.5,336.5C 193.72,334.318 185.72,332.985 177.5,332.5C 176.687,331.186 175.687,330.019 174.5,329C 174.957,328.586 175.291,328.086 175.5,327.5C 172.832,326.262 170.166,326.262 167.5,327.5C 166.913,326.767 166.913,325.767 167.5,324.5C 168.833,324.5 170.167,324.5 171.5,324.5C 171.5,323.5 171.5,322.5 171.5,321.5C 177.167,321.5 182.833,321.5 188.5,321.5C 188.5,322.5 188.5,323.5 188.5,324.5C 193.683,326.361 199.017,327.695 204.5,328.5C 204.5,329.5 204.5,330.5 204.5,331.5C 211.61,330.986 215.276,334.32 215.5,341.5C 221.274,342.277 224.274,345.61 224.5,351.5C 225.5,351.5 226.5,351.5 227.5,351.5C 229.996,359.619 231.663,367.953 232.5,376.5C 234.429,376.231 236.095,376.731 237.5,378C 237,378.5 236.5,379 236,379.5C 234.817,378.269 233.651,378.269 232.5,379.5C 234.184,380.854 234.684,382.521 234,384.5C 232.844,383.007 232.01,383.174 231.5,385C 231.037,391.86 229.037,398.193 225.5,404C 225.939,407.016 225.939,410.182 225.5,413.5C 223.833,413.5 222.167,413.5 220.5,413.5C 220.719,412.325 220.386,411.325 219.5,410.5C 218.949,412.413 218.782,414.413 219,416.5C 217.989,417.337 216.822,417.67 215.5,417.5C 215.024,419.993 213.69,421.993 211.5,423.5C 208.839,424.499 206.172,425.499 203.5,426.5C 202.158,425.098 201.324,425.431 201,427.5C 200.167,426.5 199.333,425.5 198.5,424.5C 196.253,425.374 193.92,425.708 191.5,425.5C 191.5,426.5 191.5,427.5 191.5,428.5C 188.351,428.211 185.351,428.711 182.5,430C 183.973,430.71 184.64,431.876 184.5,433.5C 182.5,433.5 180.5,433.5 178.5,433.5C 178.635,435.554 177.968,437.221 176.5,438.5 Z"/></g>
<g><path style="opacity:1" fill="#384651" d="M 37.5,392.5 C 37.0431,386.28 36.0431,380.28 34.5,374.5C 34.5,373.5 34.5,372.5 34.5,371.5C 39.8606,372.134 44.8606,371.134 49.5,368.5C 50.3739,374.635 51.7072,380.635 53.5,386.5C 50.5379,392.316 45.8712,394.816 39.5,394C 38.5842,393.722 37.9175,393.222 37.5,392.5 Z"/></g>
<g><path style="opacity:1" fill="#c2c7ca" d="M 34.5,374.5 C 36.0431,380.28 37.0431,386.28 37.5,392.5C 35.2375,386.835 34.2375,380.835 34.5,374.5 Z"/></g>
<g><path style="opacity:1" fill="#303c47" d="M 248.5,389.5 C 249.573,395.115 249.74,400.782 249,406.5C 247.59,411.559 246.09,416.559 244.5,421.5C 245.552,421.649 246.552,421.483 247.5,421C 248.163,419.482 249.163,418.315 250.5,417.5C 250.5,419.167 250.5,420.833 250.5,422.5C 248.833,422.5 247.167,422.5 245.5,422.5C 245.509,424.308 245.009,425.975 244,427.5C 243.576,425.485 242.742,423.651 241.5,422C 243.756,420.166 243.756,418.499 241.5,417C 242.936,409.145 242.269,408.812 239.5,416C 239.645,417.226 239.978,418.393 240.5,419.5C 239.47,419.554 238.303,419.888 237,420.5C 235.878,422.42 235.044,424.42 234.5,426.5C 232.24,427.139 230.24,428.306 228.5,430C 226.222,432.993 223.722,435.827 221,438.5C 215.691,441.364 210.191,443.697 204.5,445.5C 204.5,447.167 204.5,448.833 204.5,450.5C 200.736,450.909 197.07,450.909 193.5,450.5C 191.62,450.925 190.12,451.925 189,453.5C 188.05,452.978 187.216,452.311 186.5,451.5C 185.094,452.951 183.594,454.284 182,455.5C 179.985,453.133 177.818,451.8 175.5,451.5C 174.052,448.404 173.552,445.071 174,441.5C 174.816,442.823 175.983,443.489 177.5,443.5C 177.918,444.222 178.584,444.722 179.5,445C 184.833,445.667 190.167,445.667 195.5,445C 196.791,443.708 196.791,442.542 195.5,441.5C 198.338,439.583 201.338,438.916 204.5,439.5C 204.5,437.5 204.5,435.5 204.5,433.5C 208.833,433.5 213.167,433.5 217.5,433.5C 217.704,430.482 218.037,427.482 218.5,424.5C 219.93,424.421 221.264,424.754 222.5,425.5C 225.06,421.918 226.727,417.918 227.5,413.5C 228.5,413.5 229.5,413.5 230.5,413.5C 229.756,410.05 231.09,408.384 234.5,408.5C 234.5,407.5 234.5,406.5 234.5,405.5C 236.103,405.688 237.437,405.188 238.5,404C 237.675,402.312 236.675,402.145 235.5,403.5C 234.52,400.914 234.187,398.247 234.5,395.5C 239.509,395.657 242.675,393.324 244,388.5C 245.429,388.47 246.929,388.803 248.5,389.5 Z"/></g>
<g><path style="opacity:1" fill="#303b42" d="M 83.5,414.5 C 82.7515,413.469 82.0848,412.302 81.5,411C 82.8333,410.333 82.8333,409.667 81.5,409C 82.1667,408.667 82.8333,408.333 83.5,408C 79.268,404.125 74.768,400.625 70,397.5C 69.51,396.207 69.3433,394.873 69.5,393.5C 70.4056,391.086 72.0722,390.253 74.5,391C 80.4736,396.318 86.8069,401.152 93.5,405.5C 90.7689,409.234 87.4356,412.234 83.5,414.5 Z"/></g>
<g><path style="opacity:1" fill="#394855" d="M 62.5,398.5 C 61.9423,399.79 60.9423,400.623 59.5,401C 60.1667,401.333 60.8333,401.667 61.5,402C 56.1667,408 56.1667,414 61.5,420C 70.665,422.942 75.3317,419.775 75.5,410.5C 75.6353,408.192 74.9686,406.192 73.5,404.5C 74.4286,402.678 73.7619,401.345 71.5,400.5C 70.7025,400.957 70.3691,401.624 70.5,402.5C 69.19,400.565 67.8567,398.565 66.5,396.5C 67.1882,395.145 68.1882,394.145 69.5,393.5C 69.3433,394.873 69.51,396.207 70,397.5C 74.768,400.625 79.268,404.125 83.5,408C 82.8333,408.333 82.1667,408.667 81.5,409C 82.8333,409.667 82.8333,410.333 81.5,411C 82.0848,412.302 82.7515,413.469 83.5,414.5C 77.7529,419.907 71.4196,424.573 64.5,428.5C 57.4694,428.723 52.9694,425.389 51,418.5C 50.3333,413.833 50.3333,409.167 51,404.5C 51.6152,402.884 52.6152,401.551 54,400.5C 54.49,399.207 54.6567,397.873 54.5,396.5C 55.5,396.5 56.5,396.5 57.5,396.5C 57.9227,394.219 57.256,392.552 55.5,391.5C 55.5173,389.972 56.184,389.472 57.5,390C 59.8196,392.478 61.4863,395.311 62.5,398.5 Z"/></g>
<g><path style="opacity:1" fill="#445868" d="M 62.5,398.5 C 64.642,400.765 66.3087,403.432 67.5,406.5C 68.325,407.386 69.325,407.719 70.5,407.5C 70.5,405.833 70.5,404.167 70.5,402.5C 70.3691,401.624 70.7025,400.957 71.5,400.5C 73.7619,401.345 74.4286,402.678 73.5,404.5C 74.9686,406.192 75.6353,408.192 75.5,410.5C 75.3317,419.775 70.665,422.942 61.5,420C 56.1667,414 56.1667,408 61.5,402C 60.8333,401.667 60.1667,401.333 59.5,401C 60.9423,400.623 61.9423,399.79 62.5,398.5 Z"/></g>
<g><path style="opacity:1" fill="#2a353d" d="M 55.5,391.5 C 57.256,392.552 57.9227,394.219 57.5,396.5C 56.5,396.5 55.5,396.5 54.5,396.5C 54.6567,397.873 54.49,399.207 54,400.5C 52.6152,401.551 51.6152,402.884 51,404.5C 50.3333,409.167 50.3333,413.833 51,418.5C 52.9694,425.389 57.4694,428.723 64.5,428.5C 61.4564,429.792 58.2897,430.792 55,431.5C 52.4972,431.01 50.4972,429.677 49,427.5C 44.4283,418.208 40.9283,408.541 38.5,398.5C 44.9309,398.903 50.5976,396.569 55.5,391.5 Z"/></g>
<g><path style="opacity:1" fill="#232b32" d="M 266.5,416.5 C 270.918,421.278 273.585,426.945 274.5,433.5C 266.583,439.804 258.25,445.637 249.5,451C 230.605,471.301 207.271,480.634 179.5,479C 178.944,478.617 178.611,478.117 178.5,477.5C 178.105,473.815 177.938,470.148 178,466.5C 178.908,468.439 180.408,469.439 182.5,469.5C 182.5,468.5 182.5,467.5 182.5,466.5C 194.759,467.858 206.092,465.358 216.5,459C 217.293,457.915 217.96,456.748 218.5,455.5C 224.979,451.759 231.312,447.759 237.5,443.5C 238.246,442.264 238.579,440.93 238.5,439.5C 239.5,439.5 240.5,439.5 241.5,439.5C 241.5,438.5 241.5,437.5 241.5,436.5C 242.5,436.5 243.5,436.5 244.5,436.5C 244.5,435.5 244.5,434.5 244.5,433.5C 245.978,433.762 247.311,433.429 248.5,432.5C 253.695,427.804 258.695,422.971 263.5,418C 263.167,417.667 262.833,417.333 262.5,417C 263.793,416.51 265.127,416.343 266.5,416.5 Z"/></g>
<g><path style="opacity:1" fill="#28333d" d="M 266.5,416.5 C 265.127,416.343 263.793,416.51 262.5,417C 262.833,417.333 263.167,417.667 263.5,418C 258.695,422.971 253.695,427.804 248.5,432.5C 247.311,433.429 245.978,433.762 244.5,433.5C 244.5,434.5 244.5,435.5 244.5,436.5C 243.5,436.5 242.5,436.5 241.5,436.5C 241.5,437.5 241.5,438.5 241.5,439.5C 240.5,439.5 239.5,439.5 238.5,439.5C 238.579,440.93 238.246,442.264 237.5,443.5C 231.312,447.759 224.979,451.759 218.5,455.5C 217.96,456.748 217.293,457.915 216.5,459C 206.092,465.358 194.759,467.858 182.5,466.5C 182.5,467.5 182.5,468.5 182.5,469.5C 180.408,469.439 178.908,468.439 178,466.5C 177.938,470.148 178.105,473.815 178.5,477.5C 177.833,476.167 177.167,474.833 176.5,473.5C 176.371,466.155 176.038,458.822 175.5,451.5C 177.818,451.8 179.985,453.133 182,455.5C 183.594,454.284 185.094,452.951 186.5,451.5C 187.216,452.311 188.05,452.978 189,453.5C 190.12,451.925 191.62,450.925 193.5,450.5C 197.07,450.909 200.736,450.909 204.5,450.5C 204.5,448.833 204.5,447.167 204.5,445.5C 210.191,443.697 215.691,441.364 221,438.5C 223.722,435.827 226.222,432.993 228.5,430C 230.24,428.306 232.24,427.139 234.5,426.5C 235.044,424.42 235.878,422.42 237,420.5C 238.303,419.888 239.47,419.554 240.5,419.5C 239.978,418.393 239.645,417.226 239.5,416C 242.269,408.812 242.936,409.145 241.5,417C 243.756,418.499 243.756,420.166 241.5,422C 242.742,423.651 243.576,425.485 244,427.5C 245.009,425.975 245.509,424.308 245.5,422.5C 247.167,422.5 248.833,422.5 250.5,422.5C 250.5,420.833 250.5,419.167 250.5,417.5C 252.458,411.331 253.625,404.997 254,398.5C 258.802,404.122 262.969,410.122 266.5,416.5 Z"/></g>
<g><path style="opacity:1" fill="#dcdfe2" d="M 180.5,441.5 C 185.5,441.5 190.5,441.5 195.5,441.5C 196.791,442.542 196.791,443.708 195.5,445C 190.167,445.667 184.833,445.667 179.5,445C 178.584,444.722 177.918,444.222 177.5,443.5C 179.179,443.715 180.179,443.048 180.5,441.5 Z"/></g>
<g><path style="opacity:1" fill="#2a343e" d="M 278.5,440.5 C 283.617,444.278 287.617,448.945 290.5,454.5C 290.613,459.032 290.279,463.698 289.5,468.5C 287.766,466.766 286.432,464.766 285.5,462.5C 283.929,461.691 282.262,461.357 280.5,461.5C 280.5,460.5 280.5,459.5 280.5,458.5C 271.642,457.228 262.642,456.228 253.5,455.5C 254.127,454.583 254.461,453.583 254.5,452.5C 261.285,448.221 267.952,443.721 274.5,439C 276.066,438.7 277.399,439.2 278.5,440.5 Z"/></g>
<g><path style="opacity:1" fill="#e7ecee" d="M 274.5,433.5 C 275.5,433.5 276.5,433.5 277.5,433.5C 277.67,434.822 277.337,435.989 276.5,437C 277.823,437.816 278.489,438.983 278.5,440.5C 277.399,439.2 276.066,438.7 274.5,439C 267.952,443.721 261.285,448.221 254.5,452.5C 247.161,457.849 240.161,463.682 233.5,470C 228.65,472.993 223.65,475.493 218.5,477.5C 210.499,479.896 202.499,481.896 194.5,483.5C 189.073,483.782 183.74,483.449 178.5,482.5C 176.8,480.79 175.467,478.79 174.5,476.5C 175.193,475.482 175.859,474.482 176.5,473.5C 177.167,474.833 177.833,476.167 178.5,477.5C 178.611,478.117 178.944,478.617 179.5,479C 207.271,480.634 230.605,471.301 249.5,451C 258.25,445.637 266.583,439.804 274.5,433.5 Z"/></g>
<g><path style="opacity:1" fill="#3d4d5e" d="M 288.5,478.5 C 288.821,480.048 289.821,480.715 291.5,480.5C 288.375,481.1 288.042,482.267 290.5,484C 289.584,484.374 288.75,484.874 288,485.5C 287.503,488.146 287.336,490.813 287.5,493.5C 288.833,493.5 290.167,493.5 291.5,493.5C 292.265,496.633 292.932,499.8 293.5,503C 292.497,508.822 292.497,514.655 293.5,520.5C 292.5,520.5 291.5,520.5 290.5,520.5C 289.444,526.685 287.444,532.351 284.5,537.5C 280.828,534.826 277.161,532.16 273.5,529.5C 273.908,528.357 274.575,527.357 275.5,526.5C 277.371,527.767 279.204,527.767 281,526.5C 284.916,512.505 282.083,500.172 272.5,489.5C 270.955,488.548 269.288,488.215 267.5,488.5C 267.5,487.5 267.5,486.5 267.5,485.5C 261.629,483.677 255.629,483.177 249.5,484C 247.695,484.972 246.028,486.139 244.5,487.5C 242.955,488.452 241.288,488.785 239.5,488.5C 239.5,489.5 239.5,490.5 239.5,491.5C 236.288,493.164 233.954,495.83 232.5,499.5C 231.675,500.386 230.675,500.719 229.5,500.5C 229.259,509.576 229.259,518.576 229.5,527.5C 231.592,527.561 233.092,528.561 234,530.5C 234.333,529.5 234.667,528.5 235,527.5C 235.583,529.002 236.416,530.335 237.5,531.5C 238.675,530.145 239.675,530.312 240.5,532C 239.5,532.333 238.5,532.667 237.5,533C 238.756,533.417 239.423,534.25 239.5,535.5C 238.87,537.75 237.87,539.75 236.5,541.5C 236.607,539.621 236.107,539.288 235,540.5C 234.395,538.519 233.395,538.185 232,539.5C 229.978,538.214 227.811,537.214 225.5,536.5C 224.5,535 223.5,533.5 222.5,532C 222.049,528.141 221.049,524.474 219.5,521C 219.071,517.313 219.738,513.647 221.5,510C 221.245,507.233 220.578,504.567 219.5,502C 221.183,496.828 223.516,491.994 226.5,487.5C 229.515,486.325 231.515,484.158 232.5,481C 234.246,480.529 235.913,479.862 237.5,479C 238.99,474.946 241.657,473.446 245.5,474.5C 250.266,474.184 254.766,473.184 259,471.5C 260.234,473.734 262.067,475.234 264.5,476C 267.817,476.498 271.15,476.665 274.5,476.5C 274.281,477.675 274.614,478.675 275.5,479.5C 279.157,481.946 283.157,483.279 287.5,483.5C 287.216,481.585 287.549,479.919 288.5,478.5 Z"/></g>
<g><path style="opacity:1" fill="#303b46" d="M 323.5,509.5 C 321.983,509.489 320.816,508.823 320,507.5C 317.544,504.842 315.877,502.175 315,499.5C 315.792,501.846 315.625,504.179 314.5,506.5C 313.5,506.5 312.5,506.5 311.5,506.5C 311.666,510.514 311.499,514.514 311,518.5C 310.173,519.662 309.34,520.829 308.5,522C 308.905,522.945 309.572,523.612 310.5,524C 308.554,530.146 306.554,536.313 304.5,542.5C 301.518,542.827 298.685,542.827 296,542.5C 297.486,539.852 298.319,536.852 298.5,533.5C 299.5,533.5 300.5,533.5 301.5,533.5C 301.597,529.807 302.93,526.64 305.5,524C 305.724,513.937 305.391,503.77 304.5,493.5C 303.5,493.5 302.5,493.5 301.5,493.5C 301.5,492.5 301.5,491.5 301.5,490.5C 297.842,490.676 296.842,489.176 298.5,486C 297.45,482.807 295.45,481.807 292.5,483C 294.495,480.2 295.495,477.033 295.5,473.5C 295.998,470.513 296.498,467.513 297,464.5C 307.369,478.567 316.202,493.567 323.5,509.5 Z"/></g>
<g><path style="opacity:1" fill="#34424f" d="M 295.5,473.5 C 295.495,477.033 294.495,480.2 292.5,483C 295.45,481.807 297.45,482.807 298.5,486C 296.842,489.176 297.842,490.676 301.5,490.5C 301.5,491.5 301.5,492.5 301.5,493.5C 302.5,493.5 303.5,493.5 304.5,493.5C 305.391,503.77 305.724,513.937 305.5,524C 302.93,526.64 301.597,529.807 301.5,533.5C 300.5,533.5 299.5,533.5 298.5,533.5C 298.319,536.852 297.486,539.852 296,542.5C 298.685,542.827 301.518,542.827 304.5,542.5C 304.842,543.338 305.508,543.672 306.5,543.5C 301.396,545.121 296.063,545.621 290.5,545C 288.666,542.337 286.666,539.837 284.5,537.5C 287.444,532.351 289.444,526.685 290.5,520.5C 291.5,520.5 292.5,520.5 293.5,520.5C 292.497,514.655 292.497,508.822 293.5,503C 292.932,499.8 292.265,496.633 291.5,493.5C 290.167,493.5 288.833,493.5 287.5,493.5C 287.336,490.813 287.503,488.146 288,485.5C 288.75,484.874 289.584,484.374 290.5,484C 288.042,482.267 288.375,481.1 291.5,480.5C 293.1,478.297 294.433,475.964 295.5,473.5 Z"/></g>
<g><path style="opacity:1" fill="#263038" d="M 178.5,482.5 C 183.74,483.449 189.073,483.782 194.5,483.5C 198.449,483.693 198.449,484.193 194.5,485C 195.448,485.483 196.448,485.649 197.5,485.5C 197.5,488.167 197.5,490.833 197.5,493.5C 196.5,493.5 195.5,493.5 194.5,493.5C 194.281,503.562 194.948,513.562 196.5,523.5C 201.191,530.899 204.524,538.899 206.5,547.5C 208.071,549.415 210.071,550.415 212.5,550.5C 212.361,555.36 214.694,558.026 219.5,558.5C 219.296,562.281 220.963,564.614 224.5,565.5C 224.413,568.598 224.913,568.932 226,566.5C 226.464,567.094 226.631,567.761 226.5,568.5C 226.44,572.514 224.773,575.681 221.5,578C 218.039,580.066 214.373,581.566 210.5,582.5C 209.737,581.732 208.737,581.232 207.5,581C 209.439,580.092 210.439,578.592 210.5,576.5C 212.792,576.244 214.959,576.577 217,577.5C 217.555,575.279 217.388,572.946 216.5,570.5C 215.448,570.649 214.448,570.483 213.5,570C 211.082,566.255 207.749,563.588 203.5,562C 202.498,557.821 200.165,554.654 196.5,552.5C 195.543,550.082 194.209,547.916 192.5,546C 191.552,545.517 190.552,545.351 189.5,545.5C 187.724,539.711 186.558,533.711 186,527.5C 184.351,524.564 182.851,521.564 181.5,518.5C 182,517.5 182.5,516.5 183,515.5C 183.77,516.598 184.603,516.598 185.5,515.5C 189.676,516.169 191.009,514.669 189.5,511C 184.116,510.96 180.282,508.46 178,503.5C 177.179,496.321 177.345,489.321 178.5,482.5 Z"/></g>
<g><path style="opacity:1" fill="#364451" d="M 254.5,452.5 C 254.461,453.583 254.127,454.583 253.5,455.5C 262.642,456.228 271.642,457.228 280.5,458.5C 280.5,459.5 280.5,460.5 280.5,461.5C 282.262,461.357 283.929,461.691 285.5,462.5C 286.432,464.766 287.766,466.766 289.5,468.5C 290.279,463.698 290.613,459.032 290.5,454.5C 293.534,462.677 292.867,470.677 288.5,478.5C 287.549,479.919 287.216,481.585 287.5,483.5C 283.157,483.279 279.157,481.946 275.5,479.5C 274.614,478.675 274.281,477.675 274.5,476.5C 271.15,476.665 267.817,476.498 264.5,476C 262.067,475.234 260.234,473.734 259,471.5C 254.766,473.184 250.266,474.184 245.5,474.5C 241.657,473.446 238.99,474.946 237.5,479C 235.913,479.862 234.246,480.529 232.5,481C 231.515,484.158 229.515,486.325 226.5,487.5C 223.516,491.994 221.183,496.828 219.5,502C 220.578,504.567 221.245,507.233 221.5,510C 219.738,513.647 219.071,517.313 219.5,521C 221.049,524.474 222.049,528.141 222.5,532C 223.5,533.5 224.5,535 225.5,536.5C 227.811,537.214 229.978,538.214 232,539.5C 233.395,538.185 234.395,538.519 235,540.5C 236.107,539.288 236.607,539.621 236.5,541.5C 234.402,548.008 232.069,554.342 229.5,560.5C 229.108,558.821 228.608,557.154 228,555.5C 227.667,555.833 227.333,556.167 227,556.5C 226.505,554.527 226.338,552.527 226.5,550.5C 223.772,548.67 220.772,547.17 217.5,546C 217.957,545.586 218.291,545.086 218.5,544.5C 217.273,543.41 216.44,542.076 216,540.5C 214.989,539.663 213.822,539.33 212.5,539.5C 212.665,536.482 212.498,533.482 212,530.5C 211.751,531.624 211.251,532.624 210.5,533.5C 209.448,526.678 207.781,520.011 205.5,513.5C 206.41,509.198 206.41,504.865 205.5,500.5C 206.833,500.5 208.167,500.5 209.5,500.5C 209.619,495.788 209.619,491.288 209.5,487C 213.51,485.657 217.01,483.491 220,480.5C 220.585,479.002 220.085,478.002 218.5,477.5C 223.65,475.493 228.65,472.993 233.5,470C 240.161,463.682 247.161,457.849 254.5,452.5 Z"/></g>
<g><path style="opacity:1" fill="#455869" d="M 273.5,529.5 C 268.55,526.547 263.883,523.214 259.5,519.5C 262.868,514.231 264.702,508.564 265,502.5C 264.586,502.043 264.086,501.709 263.5,501.5C 261.321,506.864 258.821,512.198 256,517.5C 249.216,522.445 243.716,528.445 239.5,535.5C 239.423,534.25 238.756,533.417 237.5,533C 238.5,532.667 239.5,532.333 240.5,532C 239.675,530.312 238.675,530.145 237.5,531.5C 236.416,530.335 235.583,529.002 235,527.5C 234.667,528.5 234.333,529.5 234,530.5C 233.092,528.561 231.592,527.561 229.5,527.5C 229.259,518.576 229.259,509.576 229.5,500.5C 230.675,500.719 231.675,500.386 232.5,499.5C 233.954,495.83 236.288,493.164 239.5,491.5C 239.5,490.5 239.5,489.5 239.5,488.5C 241.288,488.785 242.955,488.452 244.5,487.5C 246.028,486.139 247.695,484.972 249.5,484C 255.629,483.177 261.629,483.677 267.5,485.5C 267.5,486.5 267.5,487.5 267.5,488.5C 269.288,488.215 270.955,488.548 272.5,489.5C 282.083,500.172 284.916,512.505 281,526.5C 279.204,527.767 277.371,527.767 275.5,526.5C 274.575,527.357 273.908,528.357 273.5,529.5 Z"/></g>
<g><path style="opacity:1" fill="#2f3a46" d="M 218.5,477.5 C 220.085,478.002 220.585,479.002 220,480.5C 217.01,483.491 213.51,485.657 209.5,487C 209.619,491.288 209.619,495.788 209.5,500.5C 208.167,500.5 206.833,500.5 205.5,500.5C 206.41,504.865 206.41,509.198 205.5,513.5C 207.781,520.011 209.448,526.678 210.5,533.5C 211.251,532.624 211.751,531.624 212,530.5C 212.498,533.482 212.665,536.482 212.5,539.5C 213.822,539.33 214.989,539.663 216,540.5C 216.44,542.076 217.273,543.41 218.5,544.5C 218.291,545.086 217.957,545.586 217.5,546C 220.772,547.17 223.772,548.67 226.5,550.5C 226.338,552.527 226.505,554.527 227,556.5C 227.333,556.167 227.667,555.833 228,555.5C 228.608,557.154 229.108,558.821 229.5,560.5C 229.02,563.443 228.02,566.11 226.5,568.5C 226.631,567.761 226.464,567.094 226,566.5C 224.913,568.932 224.413,568.598 224.5,565.5C 220.963,564.614 219.296,562.281 219.5,558.5C 214.694,558.026 212.361,555.36 212.5,550.5C 210.071,550.415 208.071,549.415 206.5,547.5C 204.524,538.899 201.191,530.899 196.5,523.5C 194.948,513.562 194.281,503.562 194.5,493.5C 195.5,493.5 196.5,493.5 197.5,493.5C 197.5,490.833 197.5,488.167 197.5,485.5C 196.448,485.649 195.448,485.483 194.5,485C 198.449,484.193 198.449,483.693 194.5,483.5C 202.499,481.896 210.499,479.896 218.5,477.5 Z"/></g>
<g><path style="opacity:1" fill="#29323b" d="M 323.5,509.5 C 326.738,514.974 329.738,520.64 332.5,526.5C 333.71,529.949 332.71,532.783 329.5,535C 322.461,539.519 314.795,542.352 306.5,543.5C 305.508,543.672 304.842,543.338 304.5,542.5C 306.554,536.313 308.554,530.146 310.5,524C 309.572,523.612 308.905,522.945 308.5,522C 309.34,520.829 310.173,519.662 311,518.5C 311.499,514.514 311.666,510.514 311.5,506.5C 312.5,506.5 313.5,506.5 314.5,506.5C 315.625,504.179 315.792,501.846 315,499.5C 315.877,502.175 317.544,504.842 320,507.5C 320.816,508.823 321.983,509.489 323.5,509.5 Z"/></g>
<g><path style="opacity:1" fill="#f6f7f7" d="M -0.5,513.5 C 1.34351,515.279 2.01017,517.612 1.5,520.5C 3.5,520.5 5.5,520.5 7.5,520.5C 7.5,522.5 7.5,524.5 7.5,526.5C 12.0986,526.2 16.5986,526.533 21,527.5C 21.499,531.821 21.6657,536.154 21.5,540.5C 25.8333,540.5 30.1667,540.5 34.5,540.5C 34.5,542.5 34.5,544.5 34.5,546.5C 38.8333,546.5 43.1667,546.5 47.5,546.5C 47.5,551.167 47.5,555.833 47.5,560.5C 52.1667,560.5 56.8333,560.5 61.5,560.5C 61.5,562.5 61.5,564.5 61.5,566.5C 65.8333,566.5 70.1667,566.5 74.5,566.5C 74.5,568.833 74.5,571.167 74.5,573.5C 78.8333,573.5 83.1667,573.5 87.5,573.5C 87.5,575.833 87.5,578.167 87.5,580.5C 96.5,580.5 105.5,580.5 114.5,580.5C 114.5,582.5 114.5,584.5 114.5,586.5C 118.833,586.5 123.167,586.5 127.5,586.5C 127.5,587.833 127.5,589.167 127.5,590.5C 137.506,590.334 147.506,590.5 157.5,591C 160.171,592.903 163.171,593.736 166.5,593.5C 160.347,594.328 154.013,594.828 147.5,595C 144.543,595.279 141.877,596.113 139.5,597.5C 136.256,598.463 133.256,599.796 130.5,601.5C 126.886,603.307 123.22,605.14 119.5,607C 117.203,609.099 115.536,611.599 114.5,614.5C 113.5,614.5 112.5,614.5 111.5,614.5C 111.719,613.325 111.386,612.325 110.5,611.5C 109.893,611.624 109.56,611.957 109.5,612.5C 107.035,612.767 104.701,613.434 102.5,614.5C 97.3941,615.848 92.3941,617.181 87.5,618.5C 82.516,618.485 79.1827,620.818 77.5,625.5C 76.5489,626.919 76.2155,628.585 76.5,630.5C 75.5,630.5 74.5,630.5 73.5,630.5C 73.3228,626.896 73.8228,623.563 75,620.5C 71,623.833 67,627.167 63,630.5C 63.0253,635.572 64.5253,640.239 67.5,644.5C 70.1002,648.701 72.4335,653.034 74.5,657.5C 74.3367,659.857 74.5034,662.19 75,664.5C 75.8893,663.112 76.3893,663.278 76.5,665C 74.3805,666.552 74.3805,668.386 76.5,670.5C 77.2811,669.271 77.7811,667.938 78,666.5C 78.1667,667.5 78.3333,668.5 78.5,669.5C 77.0884,670.968 75.9217,673.302 75,676.5C 73.3356,672.448 71.6689,668.448 70,664.5C 67.9592,663.577 65.7925,663.244 63.5,663.5C 63.762,664.978 63.4287,666.311 62.5,667.5C 61.914,667.291 61.414,666.957 61,666.5C 60.501,662.179 60.3343,657.846 60.5,653.5C 51.8333,653.5 43.1667,653.5 34.5,653.5C 34.5,651.5 34.5,649.5 34.5,647.5C 30.1539,647.666 25.8206,647.499 21.5,647C 20.5769,644.959 20.2436,642.792 20.5,640.5C 16.1667,640.5 11.8333,640.5 7.5,640.5C 7.5,636.167 7.5,631.833 7.5,627.5C 4.83333,627.5 2.16667,627.5 -0.5,627.5C -0.5,589.5 -0.5,551.5 -0.5,513.5 Z"/></g>
<g><path style="opacity:1" fill="#20282f" d="M 185.5,515.5 C 184.603,516.598 183.77,516.598 183,515.5C 182.5,516.5 182,517.5 181.5,518.5C 182.851,521.564 184.351,524.564 186,527.5C 186.558,533.711 187.724,539.711 189.5,545.5C 190.552,545.351 191.552,545.517 192.5,546C 194.209,547.916 195.543,550.082 196.5,552.5C 200.165,554.654 202.498,557.821 203.5,562C 207.749,563.588 211.082,566.255 213.5,570C 214.448,570.483 215.448,570.649 216.5,570.5C 217.388,572.946 217.555,575.279 217,577.5C 214.959,576.577 212.792,576.244 210.5,576.5C 210.439,578.592 209.439,580.092 207.5,581C 208.737,581.232 209.737,581.732 210.5,582.5C 200.384,584.602 190.717,583.268 181.5,578.5C 180.287,576.108 179.621,573.441 179.5,570.5C 180.521,557.51 180.687,544.51 180,531.5C 178.67,524.531 178.003,517.531 178,510.5C 180.479,512.314 182.979,513.981 185.5,515.5 Z"/></g>
<g><path style="opacity:1" fill="#8f989b" d="M 178.5,585.5 C 178.5,586.833 178.5,588.167 178.5,589.5C 177.532,591.607 177.198,593.941 177.5,596.5C 177.167,596.5 176.833,596.5 176.5,596.5C 176.116,592.511 176.783,588.845 178.5,585.5 Z"/></g>
<g><path style="opacity:1" fill="#2f3c48" d="M 179.5,582.5 C 184.479,583.984 189.479,585.484 194.5,587C 198.486,587.499 202.486,587.666 206.5,587.5C 203.311,588.166 199.977,588.833 196.5,589.5C 200.119,598.103 200.452,606.936 197.5,616C 197.905,616.945 198.572,617.612 199.5,618C 197.09,618.057 195.756,619.224 195.5,621.5C 191.924,622.485 188.258,623.152 184.5,623.5C 183.448,623.649 182.448,623.483 181.5,623C 183.543,621.189 185.043,619.022 186,616.5C 187.299,610.881 187.632,605.214 187,599.5C 185.356,595.033 182.523,591.699 178.5,589.5C 178.5,588.167 178.5,586.833 178.5,585.5C 178.557,584.391 178.89,583.391 179.5,582.5 Z"/></g>
<g><path style="opacity:1" fill="#242b31" d="M 195.5,621.5 C 195.756,619.224 197.09,618.057 199.5,618C 198.572,617.612 197.905,616.945 197.5,616C 200.452,606.936 200.119,598.103 196.5,589.5C 199.977,588.833 203.311,588.166 206.5,587.5C 209.127,586.908 211.794,586.575 214.5,586.5C 213.007,598.818 208.674,609.985 201.5,620C 199.564,620.813 197.564,621.313 195.5,621.5 Z"/></g>
<g><path style="opacity:1" fill="#445768" d="M 166.5,593.5 C 168.833,593.5 171.167,593.5 173.5,593.5C 173.5,594.833 173.5,596.167 173.5,597.5C 174.791,597.737 175.791,597.404 176.5,596.5C 176.833,596.5 177.167,596.5 177.5,596.5C 177.579,597.93 177.246,599.264 176.5,600.5C 178.283,602.845 179.283,605.512 179.5,608.5C 177.714,610.82 176.547,613.487 176,616.5C 174.187,615.391 173.354,616.058 173.5,618.5C 171.319,618.284 169.653,619.117 168.5,621C 165.5,621.333 162.5,621.667 159.5,622C 161.036,623.468 161.37,624.968 160.5,626.5C 159.5,626.5 158.5,626.5 157.5,626.5C 154.204,622.509 151.204,618.176 148.5,613.5C 147.942,609.013 146.609,604.846 144.5,601C 145.687,599.981 146.687,598.814 147.5,597.5C 144.911,596.795 142.244,596.795 139.5,597.5C 141.877,596.113 144.543,595.279 147.5,595C 154.013,594.828 160.347,594.328 166.5,593.5 Z"/></g>
<g><path style="opacity:1" fill="#364552" d="M 157.5,626.5 C 153.143,626.586 148.81,626.92 144.5,627.5C 143.081,626.549 141.415,626.216 139.5,626.5C 137.593,618.789 135.76,611.122 134,603.5C 133.184,602.177 132.017,601.511 130.5,601.5C 133.256,599.796 136.256,598.463 139.5,597.5C 142.244,596.795 144.911,596.795 147.5,597.5C 146.687,598.814 145.687,599.981 144.5,601C 146.609,604.846 147.942,609.013 148.5,613.5C 151.204,618.176 154.204,622.509 157.5,626.5 Z"/></g>
<g><path style="opacity:1" fill="#f4f5f5" d="M 273.5,529.5 C 277.161,532.16 280.828,534.826 284.5,537.5C 286.666,539.837 288.666,542.337 290.5,545C 296.063,545.621 301.396,545.121 306.5,543.5C 314.795,542.352 322.461,539.519 329.5,535C 332.71,532.783 333.71,529.949 332.5,526.5C 334.941,527.557 337.275,528.89 339.5,530.5C 340.85,529.05 342.516,528.383 344.5,528.5C 344.5,530.167 344.5,531.833 344.5,533.5C 347.833,533.5 351.167,533.5 354.5,533.5C 354.5,529.167 354.5,524.833 354.5,520.5C 356.5,520.5 358.5,520.5 360.5,520.5C 360.5,558.167 360.5,595.833 360.5,633.5C 358.5,633.5 356.5,633.5 354.5,633.5C 354.5,635.833 354.5,638.167 354.5,640.5C 350.167,640.5 345.833,640.5 341.5,640.5C 341.5,644.833 341.5,649.167 341.5,653.5C 332.5,653.5 323.5,653.5 314.5,653.5C 314.5,655.833 314.5,658.167 314.5,660.5C 308.889,660.104 306.556,662.438 307.5,667.5C 305.435,666.346 304.102,664.68 303.5,662.5C 300.167,657.167 295.833,652.833 290.5,649.5C 287.192,646.529 283.859,643.529 280.5,640.5C 278.205,637.703 275.705,635.036 273,632.5C 270.898,629.295 269.065,625.962 267.5,622.5C 266.068,624.816 265.068,627.316 264.5,630C 262.527,630.495 260.527,630.662 258.5,630.5C 253.128,629.991 247.795,629.158 242.5,628C 240.677,627.003 239.01,625.836 237.5,624.5C 235.231,620.157 233.897,615.491 233.5,610.5C 228.96,614.575 225.127,619.242 222,624.5C 220.818,632.168 223.985,637.168 231.5,639.5C 236.259,641.325 241.259,642.659 246.5,643.5C 247.688,644.364 248.855,645.364 250,646.5C 251.357,649.898 253.19,652.898 255.5,655.5C 257.8,660.798 261.467,664.798 266.5,667.5C 267.6,668.558 268.934,669.392 270.5,670C 278.523,670.657 286.523,670.49 294.5,669.5C 295.817,669.821 297.151,670.154 298.5,670.5C 300.332,669.179 302.332,668.179 304.5,667.5C 304.5,668.5 304.5,669.5 304.5,670.5C 303.5,670.5 302.5,670.5 301.5,670.5C 300.551,672.737 299.884,675.071 299.5,677.5C 293.582,676.428 287.582,675.761 281.5,675.5C 276.064,675.306 272.731,675.639 271.5,676.5C 271.5,677.833 271.5,679.167 271.5,680.5C 223.499,680.667 175.499,680.5 127.5,680C 127.833,679.667 128.167,679.333 128.5,679C 126.697,678.363 125.364,677.197 124.5,675.5C 123.311,674.571 121.978,674.238 120.5,674.5C 118.488,671.795 116.488,669.128 114.5,666.5C 113.492,664.456 112.492,662.456 111.5,660.5C 109.225,654.728 108.225,648.728 108.5,642.5C 103.609,642.254 98.7762,641.587 94,640.5C 92.1796,641.604 90.6796,643.104 89.5,645C 88.0715,645.579 86.7382,645.412 85.5,644.5C 81.1831,641.848 77.5164,638.515 74.5,634.5C 74.1667,633.167 73.8333,631.833 73.5,630.5C 74.5,630.5 75.5,630.5 76.5,630.5C 76.2155,628.585 76.5489,626.919 77.5,625.5C 77.3367,627.857 77.5034,630.19 78,632.5C 79.7134,633.878 81.0467,635.545 82,637.5C 84.851,641.123 87.351,641.123 89.5,637.5C 95.9159,637.639 102.249,637.639 108.5,637.5C 110.68,636.883 112.68,635.883 114.5,634.5C 113,632.167 111.5,629.833 110,627.5C 109.71,622.285 109.543,617.285 109.5,612.5C 109.56,611.957 109.893,611.624 110.5,611.5C 111.386,612.325 111.719,613.325 111.5,614.5C 112.5,614.5 113.5,614.5 114.5,614.5C 113.473,618.446 113.306,622.446 114,626.5C 114.785,628.286 115.951,629.786 117.5,631C 126.649,630.249 135.649,629.083 144.5,627.5C 148.81,626.92 153.143,626.586 157.5,626.5C 158.5,626.5 159.5,626.5 160.5,626.5C 168.699,626.004 176.699,625.004 184.5,623.5C 188.258,623.152 191.924,622.485 195.5,621.5C 197.564,621.313 199.564,620.813 201.5,620C 208.674,609.985 213.007,598.818 214.5,586.5C 211.794,586.575 209.127,586.908 206.5,587.5C 202.486,587.666 198.486,587.499 194.5,587C 189.479,585.484 184.479,583.984 179.5,582.5C 179.389,581.883 179.056,581.383 178.5,581C 180.119,580.764 181.119,579.931 181.5,578.5C 190.717,583.268 200.384,584.602 210.5,582.5C 214.373,581.566 218.039,580.066 221.5,578C 224.773,575.681 226.44,572.514 226.5,568.5C 228.02,566.11 229.02,563.443 229.5,560.5C 232.069,554.342 234.402,548.008 236.5,541.5C 237.87,539.75 238.87,537.75 239.5,535.5C 243.716,528.445 249.216,522.445 256,517.5C 258.821,512.198 261.321,506.864 263.5,501.5C 264.086,501.709 264.586,502.043 265,502.5C 264.702,508.564 262.868,514.231 259.5,519.5C 263.883,523.214 268.55,526.547 273.5,529.5 Z"/></g>
<g><path style="opacity:1" fill="#384551" d="M 246.5,624.5 C 249.271,624.579 251.937,624.079 254.5,623C 250.302,620.303 246.969,616.803 244.5,612.5C 245.506,611.604 245.506,610.938 244.5,610.5C 243.749,611.376 243.249,612.376 243,613.5C 241.612,613.786 240.112,613.452 238.5,612.5C 240.849,610.659 243.515,609.326 246.5,608.5C 248.117,607.962 249.784,607.629 251.5,607.5C 251.5,609.5 251.5,611.5 251.5,613.5C 254.725,613.411 257.725,614.077 260.5,615.5C 261.772,615.43 262.938,615.097 264,614.5C 266.144,610.518 265.978,606.685 263.5,603C 264.337,601.989 264.67,600.822 264.5,599.5C 262.435,599.517 260.435,599.85 258.5,600.5C 261.165,597.665 263.665,594.665 266,591.5C 267.784,599.118 272.284,604.451 279.5,607.5C 273.78,612.065 268.28,616.731 263,621.5C 262.506,623.134 262.34,624.801 262.5,626.5C 256.931,626.624 251.598,625.957 246.5,624.5 Z"/></g>
<g><path style="opacity:1" fill="#2d3b44" d="M 284.5,570.5 C 284.914,572.681 285.081,575.015 285,577.5C 286.944,579.873 288.777,582.373 290.5,585C 290.167,585.333 289.833,585.667 289.5,586C 292.018,587.964 294.684,588.63 297.5,588C 300.197,591.554 303.53,594.054 307.5,595.5C 301.733,598.204 295.733,600.538 289.5,602.5C 289.389,601.883 289.056,601.383 288.5,601C 289.624,600.751 290.624,600.251 291.5,599.5C 285.648,594.64 281.315,588.64 278.5,581.5C 278.709,580.914 279.043,580.414 279.5,580C 278.099,579.59 276.766,579.09 275.5,578.5C 277.88,575.119 280.88,572.453 284.5,570.5 Z"/></g>
<g><path style="opacity:1" fill="#222a2f" d="M 275.5,578.5 C 276.766,579.09 278.099,579.59 279.5,580C 279.043,580.414 278.709,580.914 278.5,581.5C 281.315,588.64 285.648,594.64 291.5,599.5C 290.624,600.251 289.624,600.751 288.5,601C 289.056,601.383 289.389,601.883 289.5,602.5C 288.027,603.74 286.36,604.74 284.5,605.5C 273.479,602.011 268.979,594.678 271,583.5C 272.707,581.963 274.207,580.296 275.5,578.5 Z"/></g>
<g><path style="opacity:1" fill="#3b4d5b" d="M 284.5,570.5 C 285.795,569.512 287.128,568.512 288.5,567.5C 290.5,567.5 292.5,567.5 294.5,567.5C 294.201,569.604 294.534,571.604 295.5,573.5C 297.214,576.339 298.881,579.173 300.5,582C 305.184,583.909 309.85,583.909 314.5,582C 315.976,579.357 317.976,577.19 320.5,575.5C 321.127,572.298 321.794,569.131 322.5,566C 319.5,564.333 317.167,562 315.5,559C 314.234,558.691 313.067,558.191 312,557.5C 309.868,558.78 307.702,558.78 305.5,557.5C 304.712,558.77 303.712,559.77 302.5,560.5C 302.167,559.833 301.833,559.167 301.5,558.5C 301.682,556.409 301.348,554.409 300.5,552.5C 302.465,551.708 304.465,551.041 306.5,550.5C 312.977,552.322 318.811,555.322 324,559.5C 325.855,562.935 327.022,566.602 327.5,570.5C 326.051,573.732 324.884,577.065 324,580.5C 323.097,581.701 321.931,582.535 320.5,583C 321.833,583.667 321.833,584.333 320.5,585C 307.938,591.803 298.104,588.97 291,576.5C 290.333,577.833 289.667,577.833 289,576.5C 288.349,574.765 288.515,573.098 289.5,571.5C 287.955,570.548 286.288,570.215 284.5,570.5 Z"/></g>
<g><path style="opacity:1" fill="#374552" d="M 313.5,546.5 C 312.602,547.158 311.602,547.824 310.5,548.5C 313.068,550.717 316.068,551.884 319.5,552C 320.667,552.5 321.5,553.333 322,554.5C 322.333,554.167 322.667,553.833 323,553.5C 324.643,555.977 326.476,558.31 328.5,560.5C 329.192,559.975 329.692,559.308 330,558.5C 332.072,563.379 333.238,568.379 333.5,573.5C 332.503,576.993 330.836,580.159 328.5,583C 328.613,584.28 329.28,585.113 330.5,585.5C 331.736,584.754 333.07,584.421 334.5,584.5C 326.127,589.518 317.127,593.185 307.5,595.5C 303.53,594.054 300.197,591.554 297.5,588C 294.684,588.63 292.018,587.964 289.5,586C 289.833,585.667 290.167,585.333 290.5,585C 288.777,582.373 286.944,579.873 285,577.5C 285.081,575.015 284.914,572.681 284.5,570.5C 286.288,570.215 287.955,570.548 289.5,571.5C 288.515,573.098 288.349,574.765 289,576.5C 289.667,577.833 290.333,577.833 291,576.5C 298.104,588.97 307.938,591.803 320.5,585C 321.833,584.333 321.833,583.667 320.5,583C 321.931,582.535 323.097,581.701 324,580.5C 324.884,577.065 326.051,573.732 327.5,570.5C 327.022,566.602 325.855,562.935 324,559.5C 318.811,555.322 312.977,552.322 306.5,550.5C 304.465,551.041 302.465,551.708 300.5,552.5C 301.348,554.409 301.682,556.409 301.5,558.5C 298.679,556.038 297.679,553.038 298.5,549.5C 303.524,548.592 308.524,547.592 313.5,546.5 Z"/></g>
<g><path style="opacity:1" fill="#465868" d="M 288.5,567.5 C 291.212,565.311 294.378,563.978 298,563.5C 301.094,565.588 303.928,568.088 306.5,571C 308.025,572.009 309.692,572.509 311.5,572.5C 311.762,571.022 311.429,569.689 310.5,568.5C 307.479,566.146 304.812,563.479 302.5,560.5C 303.712,559.77 304.712,558.77 305.5,557.5C 307.702,558.78 309.868,558.78 312,557.5C 313.067,558.191 314.234,558.691 315.5,559C 317.167,562 319.5,564.333 322.5,566C 321.794,569.131 321.127,572.298 320.5,575.5C 317.976,577.19 315.976,579.357 314.5,582C 309.85,583.909 305.184,583.909 300.5,582C 298.881,579.173 297.214,576.339 295.5,573.5C 294.534,571.604 294.201,569.604 294.5,567.5C 292.5,567.5 290.5,567.5 288.5,567.5 Z"/></g>
<g><path style="opacity:1" fill="#2f3b45" d="M 328.5,540.5 C 327.697,541.423 327.53,542.423 328,543.5C 330.062,545.36 331.395,547.694 332,550.5C 336.577,551.241 338.744,553.908 338.5,558.5C 339.675,558.281 340.675,558.614 341.5,559.5C 342.098,563.749 341.432,567.916 339.5,572C 340.653,574.209 342.319,575.709 344.5,576.5C 341.936,580.117 338.603,582.784 334.5,584.5C 333.07,584.421 331.736,584.754 330.5,585.5C 329.28,585.113 328.613,584.28 328.5,583C 330.836,580.159 332.503,576.993 333.5,573.5C 333.238,568.379 332.072,563.379 330,558.5C 329.692,559.308 329.192,559.975 328.5,560.5C 326.476,558.31 324.643,555.977 323,553.5C 322.667,553.833 322.333,554.167 322,554.5C 321.5,553.333 320.667,552.5 319.5,552C 316.068,551.884 313.068,550.717 310.5,548.5C 311.602,547.824 312.602,547.158 313.5,546.5C 318.608,544.779 323.608,542.779 328.5,540.5 Z"/></g>
<g><path style="opacity:1" fill="#282f35" d="M 344.5,576.5 C 342.319,575.709 340.653,574.209 339.5,572C 341.432,567.916 342.098,563.749 341.5,559.5C 340.675,558.614 339.675,558.281 338.5,558.5C 338.744,553.908 336.577,551.241 332,550.5C 331.395,547.694 330.062,545.36 328,543.5C 327.53,542.423 327.697,541.423 328.5,540.5C 330.456,538.886 332.456,537.219 334.5,535.5C 341.097,545.022 345.763,555.355 348.5,566.5C 348.522,570.446 347.188,573.78 344.5,576.5 Z"/></g>
<g><path style="opacity:1" fill="#242e35" d="M 130.5,601.5 C 132.017,601.511 133.184,602.177 134,603.5C 135.76,611.122 137.593,618.789 139.5,626.5C 141.415,626.216 143.081,626.549 144.5,627.5C 135.649,629.083 126.649,630.249 117.5,631C 115.951,629.786 114.785,628.286 114,626.5C 113.306,622.446 113.473,618.446 114.5,614.5C 115.536,611.599 117.203,609.099 119.5,607C 123.22,605.14 126.886,603.307 130.5,601.5 Z"/></g>
<g><path style="opacity:1" fill="#455767" d="M 246.5,608.5 C 250.205,605.474 254.205,602.808 258.5,600.5C 260.435,599.85 262.435,599.517 264.5,599.5C 264.67,600.822 264.337,601.989 263.5,603C 265.978,606.685 266.144,610.518 264,614.5C 262.938,615.097 261.772,615.43 260.5,615.5C 257.725,614.077 254.725,613.411 251.5,613.5C 251.5,611.5 251.5,609.5 251.5,607.5C 249.784,607.629 248.117,607.962 246.5,608.5 Z"/></g>
<g><path style="opacity:1" fill="#3c4d5b" d="M 178.5,589.5 C 182.523,591.699 185.356,595.033 187,599.5C 187.632,605.214 187.299,610.881 186,616.5C 185.043,619.022 183.543,621.189 181.5,623C 182.448,623.483 183.448,623.649 184.5,623.5C 176.699,625.004 168.699,626.004 160.5,626.5C 161.37,624.968 161.036,623.468 159.5,622C 162.5,621.667 165.5,621.333 168.5,621C 169.653,619.117 171.319,618.284 173.5,618.5C 173.354,616.058 174.187,615.391 176,616.5C 176.547,613.487 177.714,610.82 179.5,608.5C 179.283,605.512 178.283,602.845 176.5,600.5C 177.246,599.264 177.579,597.93 177.5,596.5C 177.198,593.941 177.532,591.607 178.5,589.5 Z"/></g>
<g><path style="opacity:1" fill="#252c35" d="M 246.5,624.5 C 240.395,622.99 237.728,618.99 238.5,612.5C 240.112,613.452 241.612,613.786 243,613.5C 243.249,612.376 243.749,611.376 244.5,610.5C 245.506,610.938 245.506,611.604 244.5,612.5C 246.969,616.803 250.302,620.303 254.5,623C 251.937,624.079 249.271,624.579 246.5,624.5 Z"/></g>
<g><path style="opacity:1" fill="#272e34" d="M 237.5,624.5 C 238.394,629.232 237.894,633.899 236,638.5C 234.644,639.38 233.144,639.714 231.5,639.5C 223.985,637.168 220.818,632.168 222,624.5C 225.127,619.242 228.96,614.575 233.5,610.5C 233.897,615.491 235.231,620.157 237.5,624.5 Z"/></g>
<g><path style="opacity:1" fill="#3f4d5d" d="M 102.5,614.5 C 101.588,615.738 101.421,617.072 102,618.5C 106.188,619.522 108.355,622.189 108.5,626.5C 108.289,628.774 107.955,631.107 107.5,633.5C 100.565,636.76 100.898,638.094 108.5,637.5C 102.249,637.639 95.9159,637.639 89.5,637.5C 87.566,635.364 85.8993,633.03 84.5,630.5C 85.1034,627.65 85.77,624.816 86.5,622C 87.444,620.523 88.7774,619.523 90.5,619C 89.552,618.517 88.552,618.351 87.5,618.5C 92.3941,617.181 97.3941,615.848 102.5,614.5 Z"/></g>
<g><path style="opacity:1" fill="#2e3840" d="M 109.5,612.5 C 109.543,617.285 109.71,622.285 110,627.5C 111.5,629.833 113,632.167 114.5,634.5C 112.68,635.883 110.68,636.883 108.5,637.5C 100.898,638.094 100.565,636.76 107.5,633.5C 107.955,631.107 108.289,628.774 108.5,626.5C 108.355,622.189 106.188,619.522 102,618.5C 101.421,617.072 101.588,615.738 102.5,614.5C 104.701,613.434 107.035,612.767 109.5,612.5 Z"/></g>
<g><path style="opacity:1" fill="#28323a" d="M 87.5,618.5 C 88.552,618.351 89.552,618.517 90.5,619C 88.7774,619.523 87.444,620.523 86.5,622C 85.77,624.816 85.1034,627.65 84.5,630.5C 85.8993,633.03 87.566,635.364 89.5,637.5C 87.351,641.123 84.851,641.123 82,637.5C 81.0467,635.545 79.7134,633.878 78,632.5C 77.5034,630.19 77.3367,627.857 77.5,625.5C 79.1827,620.818 82.516,618.485 87.5,618.5 Z"/></g>
<g><path style="opacity:1" fill="#f1f1f1" d="M -0.5,627.5 C 2.16667,627.5 4.83333,627.5 7.5,627.5C 7.5,631.833 7.5,636.167 7.5,640.5C 11.8333,640.5 16.1667,640.5 20.5,640.5C 20.2436,642.792 20.5769,644.959 21.5,647C 25.8206,647.499 30.1539,647.666 34.5,647.5C 34.5,649.5 34.5,651.5 34.5,653.5C 43.1667,653.5 51.8333,653.5 60.5,653.5C 60.3343,657.846 60.501,662.179 61,666.5C 61.414,666.957 61.914,667.291 62.5,667.5C 63.4287,666.311 63.762,664.978 63.5,663.5C 65.7925,663.244 67.9592,663.577 70,664.5C 71.6689,668.448 73.3356,672.448 75,676.5C 75.9217,673.302 77.0884,670.968 78.5,669.5C 78.3333,668.5 78.1667,667.5 78,666.5C 77.7811,667.938 77.2811,669.271 76.5,670.5C 74.3805,668.386 74.3805,666.552 76.5,665C 76.3893,663.278 75.8893,663.112 75,664.5C 74.5034,662.19 74.3367,659.857 74.5,657.5C 78.5555,662.316 80.3889,667.983 80,674.5C 80.7568,676.315 81.5902,677.981 82.5,679.5C 83.7805,682.447 85.7805,684.781 88.5,686.5C 95.9013,693.017 104.568,695.184 114.5,693C 128.503,693.295 131.17,688.128 122.5,677.5C 121.833,676.5 121.167,675.5 120.5,674.5C 121.978,674.238 123.311,674.571 124.5,675.5C 125.364,677.197 126.697,678.363 128.5,679C 128.167,679.333 127.833,679.667 127.5,680C 175.499,680.5 223.499,680.667 271.5,680.5C 271.5,679.167 271.5,677.833 271.5,676.5C 272.731,675.639 276.064,675.306 281.5,675.5C 287.582,675.761 293.582,676.428 299.5,677.5C 299.884,675.071 300.551,672.737 301.5,670.5C 302.5,670.5 303.5,670.5 304.5,670.5C 304.5,669.5 304.5,668.5 304.5,667.5C 302.332,668.179 300.332,669.179 298.5,670.5C 297.151,670.154 295.817,669.821 294.5,669.5C 297.024,668.26 299.691,667.093 302.5,666C 303.337,664.989 303.67,663.822 303.5,662.5C 304.102,664.68 305.435,666.346 307.5,667.5C 306.556,662.438 308.889,660.104 314.5,660.5C 314.5,658.167 314.5,655.833 314.5,653.5C 323.5,653.5 332.5,653.5 341.5,653.5C 341.5,649.167 341.5,644.833 341.5,640.5C 345.833,640.5 350.167,640.5 354.5,640.5C 354.5,638.167 354.5,635.833 354.5,633.5C 356.5,633.5 358.5,633.5 360.5,633.5C 360.5,655.833 360.5,678.167 360.5,700.5C 240.167,700.5 119.833,700.5 -0.5,700.5C -0.5,676.167 -0.5,651.833 -0.5,627.5 Z"/></g>
<g><path style="opacity:1" fill="#293138" d="M 73.5,630.5 C 73.8333,631.833 74.1667,633.167 74.5,634.5C 74.0466,638.426 75.3799,641.592 78.5,644C 77.5509,644.617 76.7175,644.451 76,643.5C 75.9199,645.248 75.0866,646.915 73.5,648.5C 71.5414,647.252 70.0414,645.585 69,643.5C 68.6174,644.056 68.1174,644.389 67.5,644.5C 64.5253,640.239 63.0253,635.572 63,630.5C 67,627.167 71,623.833 75,620.5C 73.8228,623.563 73.3228,626.896 73.5,630.5 Z"/></g>
<g><path style="opacity:1" fill="#3a4955" d="M 237.5,624.5 C 239.01,625.836 240.677,627.003 242.5,628C 247.795,629.158 253.128,629.991 258.5,630.5C 253.383,631.13 250.883,634.13 251,639.5C 248.298,640.412 246.798,641.745 246.5,643.5C 241.259,642.659 236.259,641.325 231.5,639.5C 233.144,639.714 234.644,639.38 236,638.5C 237.894,633.899 238.394,629.232 237.5,624.5 Z"/></g>
<g><path style="opacity:1" fill="#445868" d="M 280.5,640.5 C 279.213,641.768 278.213,641.435 277.5,639.5C 275.582,646.252 271.249,650.419 264.5,652C 263.382,653.074 262.382,654.24 261.5,655.5C 259.421,652.894 257.421,652.894 255.5,655.5C 253.19,652.898 251.357,649.898 250,646.5C 248.855,645.364 247.688,644.364 246.5,643.5C 246.798,641.745 248.298,640.412 251,639.5C 250.883,634.13 253.383,631.13 258.5,630.5C 260.527,630.662 262.527,630.495 264.5,630C 265.068,627.316 266.068,624.816 267.5,622.5C 269.065,625.962 270.898,629.295 273,632.5C 275.705,635.036 278.205,637.703 280.5,640.5 Z"/></g>
<g><path style="opacity:1" fill="#435565" d="M 111.5,660.5 C 106.984,660.481 104.984,662.814 105.5,667.5C 102.064,669.328 98.3969,670.995 94.5,672.5C 90.9705,671.632 87.6371,670.299 84.5,668.5C 83.5823,666.161 81.9156,664.661 79.5,664C 80.1667,663.667 80.8333,663.333 81.5,663C 80.9495,660.81 80.9495,658.477 81.5,656C 83.4434,652.492 84.7767,648.659 85.5,644.5C 86.7382,645.412 88.0715,645.579 89.5,645C 90.6796,643.104 92.1796,641.604 94,640.5C 98.7762,641.587 103.609,642.254 108.5,642.5C 108.225,648.728 109.225,654.728 111.5,660.5 Z"/></g>
<g><path style="opacity:1" fill="#384654" d="M 280.5,640.5 C 283.859,643.529 287.192,646.529 290.5,649.5C 288.234,649.859 286.401,649.192 285,647.5C 282.249,651.252 279.916,655.252 278,659.5C 274.341,661.387 270.508,662.887 266.5,664C 267.167,664.333 267.833,664.667 268.5,665C 267.619,665.708 266.953,666.542 266.5,667.5C 261.467,664.798 257.8,660.798 255.5,655.5C 257.421,652.894 259.421,652.894 261.5,655.5C 262.382,654.24 263.382,653.074 264.5,652C 271.249,650.419 275.582,646.252 277.5,639.5C 278.213,641.435 279.213,641.768 280.5,640.5 Z"/></g>
<g><path style="opacity:1" fill="#2a343d" d="M 290.5,649.5 C 295.833,652.833 300.167,657.167 303.5,662.5C 303.67,663.822 303.337,664.989 302.5,666C 299.691,667.093 297.024,668.26 294.5,669.5C 286.523,670.49 278.523,670.657 270.5,670C 268.934,669.392 267.6,668.558 266.5,667.5C 266.953,666.542 267.619,665.708 268.5,665C 267.833,664.667 267.167,664.333 266.5,664C 270.508,662.887 274.341,661.387 278,659.5C 279.916,655.252 282.249,651.252 285,647.5C 286.401,649.192 288.234,649.859 290.5,649.5 Z"/></g>
<g><path style="opacity:1" fill="#374553" d="M 74.5,634.5 C 77.5164,638.515 81.1831,641.848 85.5,644.5C 84.7767,648.659 83.4434,652.492 81.5,656C 80.9495,658.477 80.9495,660.81 81.5,663C 80.8333,663.333 80.1667,663.667 79.5,664C 81.9156,664.661 83.5823,666.161 84.5,668.5C 87.6371,670.299 90.9705,671.632 94.5,672.5C 98.3969,670.995 102.064,669.328 105.5,667.5C 104.984,662.814 106.984,660.481 111.5,660.5C 112.492,662.456 113.492,664.456 114.5,666.5C 114.986,669.755 113.986,672.422 111.5,674.5C 107.161,675.172 103.161,676.672 99.5,679C 95.4016,680.147 91.9016,679.314 89,676.5C 86.3514,677.589 84.1848,678.589 82.5,679.5C 81.5902,677.981 80.7568,676.315 80,674.5C 80.3889,667.983 78.5555,662.316 74.5,657.5C 72.4335,653.034 70.1002,648.701 67.5,644.5C 68.1174,644.389 68.6174,644.056 69,643.5C 70.0414,645.585 71.5414,647.252 73.5,648.5C 75.0866,646.915 75.9199,645.248 76,643.5C 76.7175,644.451 77.5509,644.617 78.5,644C 75.3799,641.592 74.0466,638.426 74.5,634.5 Z"/></g>
<g><path style="opacity:1" fill="#2d3843" d="M 114.5,666.5 C 116.488,669.128 118.488,671.795 120.5,674.5C 121.167,675.5 121.833,676.5 122.5,677.5C 120.7,678.605 119.533,677.939 119,675.5C 114.018,678.815 109.518,682.649 105.5,687C 100.271,687.349 95.1041,686.849 90,685.5C 89.2352,685.57 88.7352,685.903 88.5,686.5C 85.7805,684.781 83.7805,682.447 82.5,679.5C 84.1848,678.589 86.3514,677.589 89,676.5C 91.9016,679.314 95.4016,680.147 99.5,679C 103.161,676.672 107.161,675.172 111.5,674.5C 113.986,672.422 114.986,669.755 114.5,666.5 Z"/></g>
<g><path style="opacity:1" fill="#262c32" d="M 122.5,677.5 C 131.17,688.128 128.503,693.295 114.5,693C 104.568,695.184 95.9013,693.017 88.5,686.5C 88.7352,685.903 89.2352,685.57 90,685.5C 95.1041,686.849 100.271,687.349 105.5,687C 109.518,682.649 114.018,678.815 119,675.5C 119.533,677.939 120.7,678.605 122.5,677.5 Z"/></g>
</svg>
