<?xml version="1.0" encoding="UTF-8"?>
<!DOCTYPE svg PUBLIC "-//W3C//DTD SVG 1.1//EN" "http://www.w3.org/Graphics/SVG/1.1/DTD/svg11.dtd">
<svg xmlns="http://www.w3.org/2000/svg" version="1.1" width="311px" height="512px" style="shape-rendering:geometricPrecision; text-rendering:geometricPrecision; image-rendering:optimizeQuality; fill-rule:evenodd; clip-rule:evenodd" xmlns:xlink="http://www.w3.org/1999/xlink">
<g><path style="opacity:1" fill="#fafafc" d="M -0.5,-0.5 C 11.5,-0.5 23.5,-0.5 35.5,-0.5C 35.5,-0.166667 35.5,0.166667 35.5,0.5C 19.4314,2.70443 8.43141,11.3711 2.5,26.5C 1.07619,28.5145 0.409526,30.8478 0.5,33.5C 0.166667,33.5 -0.166667,33.5 -0.5,33.5C -0.5,22.1667 -0.5,10.8333 -0.5,-0.5 Z"/></g>
<g><path style="opacity:1" fill="#e3ddfd" d="M 35.5,0.5 C 35.5,0.166667 35.5,-0.166667 35.5,-0.5C 84.8333,-0.5 134.167,-0.5 183.5,-0.5C 183.263,0.791047 183.596,1.79105 184.5,2.5C 185.338,2.84171 185.672,3.50838 185.5,4.5C 184.348,3.37505 183.348,3.37505 182.5,4.5C 181.566,3.43236 181.232,2.09903 181.5,0.5C 132.833,0.5 84.1667,0.5 35.5,0.5 Z"/></g>
<g><path style="opacity:1" fill="#fecacd" d="M 183.5,-0.5 C 213.5,-0.5 243.5,-0.5 273.5,-0.5C 273.5,-0.166667 273.5,0.166667 273.5,0.5C 243.481,-0.158793 213.815,0.507874 184.5,2.5C 183.596,1.79105 183.263,0.791047 183.5,-0.5 Z"/></g>
<g><path style="opacity:1" fill="#fef0f1" d="M 273.5,0.5 C 273.5,0.166667 273.5,-0.166667 273.5,-0.5C 285.833,-0.5 298.167,-0.5 310.5,-0.5C 310.5,170.167 310.5,340.833 310.5,511.5C 298.167,511.5 285.833,511.5 273.5,511.5C 273.5,511.167 273.5,510.833 273.5,510.5C 274.791,510.737 275.791,510.404 276.5,509.5C 290.044,507.409 299.378,500.075 304.5,487.5C 306.718,484.281 307.885,480.614 308,476.5C 308.833,327.666 308.666,178.999 307.5,30.5C 307.741,28.1016 307.074,26.1016 305.5,24.5C 300.2,11.3474 290.533,3.68078 276.5,1.5C 275.791,0.596028 274.791,0.262695 273.5,0.5 Z"/></g>
<g><path style="opacity:1" fill="#d40517" d="M 273.5,0.5 C 274.791,0.262695 275.791,0.596028 276.5,1.5C 246.5,1.5 216.5,1.5 186.5,1.5C 186.5,2.5 186.5,3.5 186.5,4.5C 186.167,4.5 185.833,4.5 185.5,4.5C 185.672,3.50838 185.338,2.84171 184.5,2.5C 213.815,0.507874 243.481,-0.158793 273.5,0.5 Z"/></g>
<g><path style="opacity:1" fill="#320087" d="M 35.5,0.5 C 84.1667,0.5 132.833,0.5 181.5,0.5C 181.232,2.09903 181.566,3.43236 182.5,4.5C 183.946,16.1212 184.779,27.7879 185,39.5C 181.66,50.8578 177.326,61.8578 172,72.5C 170.894,76.8678 169.728,81.2011 168.5,85.5C 167.076,87.5145 166.41,89.8478 166.5,92.5C 164.723,95.5046 163.723,98.8379 163.5,102.5C 160.984,107.863 157.817,112.863 154,117.5C 153.109,121.733 151.609,125.733 149.5,129.5C 148.726,130.711 147.893,130.711 147,129.5C 146.505,127.527 146.338,125.527 146.5,123.5C 143.834,123.067 141.168,122.567 138.5,122C 136.963,120.89 136.297,119.39 136.5,117.5C 135.448,117.649 134.448,117.483 133.5,117C 131.388,113.12 128.055,111.287 123.5,111.5C 119.629,110.442 115.963,111.109 112.5,113.5C 97.008,121.481 93.1747,133.481 101,149.5C 105.717,153.678 110.717,157.345 116,160.5C 115.255,163.383 114.421,166.383 113.5,169.5C 113.437,171.514 114.103,173.181 115.5,174.5C 116.076,177.607 116.076,180.607 115.5,183.5C 115.649,184.552 115.483,185.552 115,186.5C 110.356,190.143 106.023,194.143 102,198.5C 101.461,201.529 100.794,204.529 100,207.5C 98.0174,210.614 96.5174,213.947 95.5,217.5C 94.3228,219.679 93.3228,222.013 92.5,224.5C 91.2311,227.426 89.3977,230.092 87,232.5C 86.5065,234.134 86.3398,235.801 86.5,237.5C 85.448,237.649 84.448,237.483 83.5,237C 81.7888,234.411 79.9555,231.911 78,229.5C 77.8195,226.305 77.3195,223.305 76.5,220.5C 76.5905,217.848 75.9238,215.515 74.5,213.5C 71.9216,207.112 70.4216,200.446 70,193.5C 67.9058,189.992 66.4058,186.325 65.5,182.5C 66.7654,172.511 67.7654,162.511 68.5,152.5C 71.0449,146.729 73.0449,140.729 74.5,134.5C 75.4013,133.71 76.0679,132.71 76.5,131.5C 84.0448,122.904 89.0448,112.904 91.5,101.5C 92.9676,97.2584 93.6343,92.7584 93.5,88C 93.6343,83.2416 92.9676,78.7416 91.5,74.5C 88.3139,56.7561 78.3139,50.5895 61.5,56C 56.2905,59.9233 53.2905,65.09 52.5,71.5C 51.7321,72.2625 51.2321,73.2625 51,74.5C 50.1768,83.0104 50.3434,91.3437 51.5,99.5C 51.7526,103.04 52.4192,106.373 53.5,109.5C 54.9633,116.15 56.2966,122.817 57.5,129.5C 57.8562,138.368 58.5228,147.201 59.5,156C 58.6328,159.105 58.2994,162.272 58.5,165.5C 57.612,168.054 57.2786,170.721 57.5,173.5C 56.5489,174.919 56.2155,176.585 56.5,178.5C 52.3512,179.144 50.1845,181.477 50,185.5C 50.3826,186.056 50.8826,186.389 51.5,186.5C 50.6302,191.771 49.6302,197.104 48.5,202.5C 48.974,205.311 50.3073,207.645 52.5,209.5C 53.3149,210.837 54.4815,211.837 56,212.5C 56.5662,214.723 57.3995,216.723 58.5,218.5C 60.6555,226.747 62.4888,235.08 64,243.5C 65.9937,248.303 68.1604,252.969 70.5,257.5C 71.5142,262.848 74.1809,267.181 78.5,270.5C 80.9664,271.634 83.633,271.801 86.5,271C 87.056,270.617 87.3893,270.117 87.5,269.5C 93.5575,265.94 98.0575,260.94 101,254.5C 103.833,253 106,250.833 107.5,248C 111.819,247.095 116.152,246.762 120.5,247C 125.688,249.184 130.022,252.518 133.5,257C 135.5,257.667 137.5,258.333 139.5,259C 145.126,266.294 151.126,273.294 157.5,280C 159.818,281.993 162.484,283.159 165.5,283.5C 164.964,286.665 165.797,289.331 168,291.5C 168.333,293.5 168.667,295.5 169,297.5C 171.434,300.795 173.101,304.462 174,308.5C 177.186,312.873 179.853,317.54 182,322.5C 183.154,323.743 184.488,324.743 186,325.5C 188.744,331.963 192.744,337.63 198,342.5C 199.153,345.711 199.82,349.044 200,352.5C 205.092,358.43 210.926,363.43 217.5,367.5C 218.965,369.599 220.299,371.766 221.5,374C 213.692,381.468 205.525,388.635 197,395.5C 193.77,400.384 191.437,405.718 190,411.5C 182.642,420.691 175.475,430.024 168.5,439.5C 159.711,444.645 151.545,450.645 144,457.5C 144.383,463.301 146.383,468.634 150,473.5C 153.333,476.833 156.667,480.167 160,483.5C 162.712,491.922 167.212,499.255 173.5,505.5C 171.94,507.129 172.273,508.296 174.5,509C 128.167,509.667 81.8333,509.667 35.5,509C 33.3078,506.332 30.6412,505.832 27.5,507.5C 26.1076,506.395 24.941,505.061 24,503.5C 22.6439,504.38 21.1439,504.714 19.5,504.5C 19.4208,503.07 19.7542,501.736 20.5,500.5C 17.9881,499.205 15.3214,498.539 12.5,498.5C 12.6567,497.127 12.49,495.793 12,494.5C 11.586,494.957 11.086,495.291 10.5,495.5C 9.91968,492.621 8.25301,490.954 5.5,490.5C 4.22713,488.287 3.22713,485.954 2.5,483.5C 1.17412,331.155 1.17412,178.822 2.5,26.5C 8.43141,11.3711 19.4314,2.70443 35.5,0.5 Z"/></g>
<g><path style="opacity:1" fill="#fa0000" d="M 276.5,1.5 C 290.533,3.68078 300.2,11.3474 305.5,24.5C 305.517,26.5648 305.85,28.5648 306.5,30.5C 306.667,180.167 306.5,329.834 306,479.5C 305.692,480.308 305.192,480.975 304.5,481.5C 303.719,480.271 303.219,478.938 303,477.5C 302.833,478.5 302.667,479.5 302.5,480.5C 303.182,482.841 303.849,485.174 304.5,487.5C 299.378,500.075 290.044,507.409 276.5,509.5C 249.5,509.5 222.5,509.5 195.5,509.5C 195.5,506.167 195.5,502.833 195.5,499.5C 194.5,499.5 193.5,499.5 192.5,499.5C 192.5,498.5 192.5,497.5 192.5,496.5C 195.698,497.036 198.365,496.369 200.5,494.5C 201.511,492.598 201.678,490.598 201,488.5C 183.516,478.279 180.849,464.946 193,448.5C 201.779,438.702 211.279,429.702 221.5,421.5C 226.564,419.77 229.897,416.436 231.5,411.5C 240.576,402.927 248.742,393.593 256,383.5C 255.795,372.172 255.295,360.839 254.5,349.5C 256.216,349.371 257.883,349.038 259.5,348.5C 260.725,347.848 261.392,346.681 261.5,345C 261.486,343.615 261.152,342.449 260.5,341.5C 260.5,338.5 260.5,335.5 260.5,332.5C 260.666,323.494 260.5,314.494 260,305.5C 259.617,304.944 259.117,304.611 258.5,304.5C 258.663,302.143 258.497,299.81 258,297.5C 251.67,287.679 245.17,278.012 238.5,268.5C 237.201,266.588 236.201,264.588 235.5,262.5C 234.542,261.038 233.376,259.705 232,258.5C 231.367,254.277 231.7,250.277 233,246.5C 227.023,240.855 221.357,234.855 216,228.5C 206.514,210.53 197.848,192.196 190,173.5C 186.333,168.5 182.667,163.5 179,158.5C 179.253,149.484 179.087,140.484 178.5,131.5C 178.346,128.251 179.012,125.251 180.5,122.5C 179.271,120.438 178.271,118.271 177.5,116C 181.048,106.631 184.048,97.1307 186.5,87.5C 187.375,85.4319 188.541,83.4319 190,81.5C 191.901,72.6263 193.068,63.6263 193.5,54.5C 193.911,47.7881 194.744,41.1214 196,34.5C 199.379,31.793 200.879,28.293 200.5,24C 199.8,18.7462 198.8,13.5796 197.5,8.5C 196.167,8.5 194.833,8.5 193.5,8.5C 193.826,11.7572 192.493,13.2572 189.5,13C 188.071,10.3103 187.071,7.47694 186.5,4.5C 186.5,3.5 186.5,2.5 186.5,1.5C 216.5,1.5 246.5,1.5 276.5,1.5 Z"/></g>
<g><path style="opacity:1" fill="#fdfcfc" d="M 185.5,4.5 C 185.833,4.5 186.167,4.5 186.5,4.5C 187.071,7.47694 188.071,10.3103 189.5,13C 192.493,13.2572 193.826,11.7572 193.5,8.5C 194.833,8.5 196.167,8.5 197.5,8.5C 198.8,13.5796 199.8,18.7462 200.5,24C 200.879,28.293 199.379,31.793 196,34.5C 194.744,41.1214 193.911,47.7881 193.5,54.5C 191.062,65.3508 188.728,76.3508 186.5,87.5C 184.048,97.1307 181.048,106.631 177.5,116C 178.271,118.271 179.271,120.438 180.5,122.5C 179.012,125.251 178.346,128.251 178.5,131.5C 179.087,140.484 179.253,149.484 179,158.5C 182.667,163.5 186.333,168.5 190,173.5C 197.848,192.196 206.514,210.53 216,228.5C 221.357,234.855 227.023,240.855 233,246.5C 231.7,250.277 231.367,254.277 232,258.5C 233.376,259.705 234.542,261.038 235.5,262.5C 235.34,264.199 235.506,265.866 236,267.5C 236.671,268.252 237.504,268.586 238.5,268.5C 245.17,278.012 251.67,287.679 258,297.5C 258.497,299.81 258.663,302.143 258.5,304.5C 259.058,313.985 259.724,323.318 260.5,332.5C 260.5,335.5 260.5,338.5 260.5,341.5C 260.702,343.95 260.369,346.283 259.5,348.5C 257.883,349.038 256.216,349.371 254.5,349.5C 255.295,360.839 255.795,372.172 256,383.5C 248.742,393.593 240.576,402.927 231.5,411.5C 228.5,415.167 225.167,418.5 221.5,421.5C 211.279,429.702 201.779,438.702 193,448.5C 180.849,464.946 183.516,478.279 201,488.5C 201.678,490.598 201.511,492.598 200.5,494.5C 197.609,495.403 194.609,495.736 191.5,495.5C 191.34,497.199 191.506,498.866 192,500.5C 193.526,501.545 194.359,503.045 194.5,505C 194.392,506.681 193.725,507.848 192.5,508.5C 190.5,508.5 189.5,509.5 189.5,511.5C 187.167,511.5 184.833,511.5 182.5,511.5C 182.179,509.952 181.179,509.285 179.5,509.5C 177.228,508.559 175.228,507.226 173.5,505.5C 167.212,499.255 162.712,491.922 160,483.5C 156.667,480.167 153.333,476.833 150,473.5C 146.383,468.634 144.383,463.301 144,457.5C 151.545,450.645 159.711,444.645 168.5,439.5C 175.475,430.024 182.642,420.691 190,411.5C 191.437,405.718 193.77,400.384 197,395.5C 205.525,388.635 213.692,381.468 221.5,374C 220.299,371.766 218.965,369.599 217.5,367.5C 210.926,363.43 205.092,358.43 200,352.5C 199.82,349.044 199.153,345.711 198,342.5C 192.744,337.63 188.744,331.963 186,325.5C 184.488,324.743 183.154,323.743 182,322.5C 179.853,317.54 177.186,312.873 174,308.5C 173.101,304.462 171.434,300.795 169,297.5C 168.667,295.5 168.333,293.5 168,291.5C 165.797,289.331 164.964,286.665 165.5,283.5C 162.484,283.159 159.818,281.993 157.5,280C 151.126,273.294 145.126,266.294 139.5,259C 137.5,258.333 135.5,257.667 133.5,257C 130.022,252.518 125.688,249.184 120.5,247C 116.152,246.762 111.819,247.095 107.5,248C 106,250.833 103.833,253 101,254.5C 98.0575,260.94 93.5575,265.94 87.5,269.5C 84.9039,270.265 82.2372,270.599 79.5,270.5C 78.5423,269.038 77.3756,267.705 76,266.5C 75.7489,264.567 75.2489,262.734 74.5,261C 74.9574,260.586 75.2907,260.086 75.5,259.5C 74.1502,258.05 72.4835,257.383 70.5,257.5C 68.1604,252.969 65.9937,248.303 64,243.5C 62.4888,235.08 60.6555,226.747 58.5,218.5C 58.5,215.833 58.5,213.167 58.5,210.5C 56.4352,210.483 54.4352,210.15 52.5,209.5C 50.3073,207.645 48.974,205.311 48.5,202.5C 49.6302,197.104 50.6302,191.771 51.5,186.5C 51.6705,182.466 53.5038,181.132 57,182.5C 57.498,179.518 57.6646,176.518 57.5,173.5C 57.2786,170.721 57.612,168.054 58.5,165.5C 60.9427,153.457 60.6094,141.457 57.5,129.5C 56.2966,122.817 54.9633,116.15 53.5,109.5C 53.2011,107.396 53.5344,105.396 54.5,103.5C 55.0652,105.544 56.0652,107.21 57.5,108.5C 59.1498,115.3 62.4832,121.134 67.5,126C 70.146,126.497 72.8127,126.664 75.5,126.5C 76.675,126.281 77.675,126.614 78.5,127.5C 78.1543,128.696 77.6543,128.696 77,127.5C 76.51,128.793 76.3433,130.127 76.5,131.5C 76.0679,132.71 75.4013,133.71 74.5,134.5C 73.3332,132.959 71.9999,131.625 70.5,130.5C 68.0092,130.171 65.8425,129.171 64,127.5C 63.5017,130.817 63.335,134.15 63.5,137.5C 63.3359,140.187 63.5026,142.854 64,145.5C 65.1131,146.711 66.2798,146.711 67.5,145.5C 68.4742,147.743 68.8076,150.076 68.5,152.5C 67.7654,162.511 66.7654,172.511 65.5,182.5C 66.4058,186.325 67.9058,189.992 70,193.5C 70.4216,200.446 71.9216,207.112 74.5,213.5C 74.4095,216.152 75.0762,218.485 76.5,220.5C 77.3195,223.305 77.8195,226.305 78,229.5C 79.9555,231.911 81.7888,234.411 83.5,237C 84.448,237.483 85.448,237.649 86.5,237.5C 86.3398,235.801 86.5065,234.134 87,232.5C 89.3977,230.092 91.2311,227.426 92.5,224.5C 94.821,222.91 95.821,220.577 95.5,217.5C 96.5174,213.947 98.0174,210.614 100,207.5C 100.794,204.529 101.461,201.529 102,198.5C 106.023,194.143 110.356,190.143 115,186.5C 115.483,185.552 115.649,184.552 115.5,183.5C 116.88,183.038 117.547,182.038 117.5,180.5C 117.122,178.283 116.455,176.283 115.5,174.5C 114.103,173.181 113.437,171.514 113.5,169.5C 114.421,166.383 115.255,163.383 116,160.5C 110.717,157.345 105.717,153.678 101,149.5C 93.1747,133.481 97.008,121.481 112.5,113.5C 116.167,112.833 119.833,112.167 123.5,111.5C 128.055,111.287 131.388,113.12 133.5,117C 134.448,117.483 135.448,117.649 136.5,117.5C 136.297,119.39 136.963,120.89 138.5,122C 141.168,122.567 143.834,123.067 146.5,123.5C 146.338,125.527 146.505,127.527 147,129.5C 147.893,130.711 148.726,130.711 149.5,129.5C 151.609,125.733 153.109,121.733 154,117.5C 157.817,112.863 160.984,107.863 163.5,102.5C 165.277,99.4954 166.277,96.1621 166.5,92.5C 167.924,90.4855 168.59,88.1522 168.5,85.5C 169.728,81.2011 170.894,76.8678 172,72.5C 177.326,61.8578 181.66,50.8578 185,39.5C 184.779,27.7879 183.946,16.1212 182.5,4.5C 183.348,3.37505 184.348,3.37505 185.5,4.5 Z"/></g>
<g><path style="opacity:1" fill="#f6535f" d="M 305.5,24.5 C 307.074,26.1016 307.741,28.1016 307.5,30.5C 307.167,30.5 306.833,30.5 306.5,30.5C 305.85,28.5648 305.517,26.5648 305.5,24.5 Z"/></g>
<g><path style="opacity:1" fill="#c8bef0" d="M -0.5,33.5 C -0.166667,33.5 0.166667,33.5 0.5,33.5C 0.172749,182.188 0.506082,330.855 1.5,479.5C 0.833333,478.833 0.166667,478.167 -0.5,477.5C -0.5,329.5 -0.5,181.5 -0.5,33.5 Z"/></g>
<g><path style="opacity:1" fill="#5525a3" d="M 2.5,26.5 C 1.17412,178.822 1.17412,331.155 2.5,483.5C 1.56552,482.432 1.23219,481.099 1.5,479.5C 0.506082,330.855 0.172749,182.188 0.5,33.5C 0.409526,30.8478 1.07619,28.5145 2.5,26.5 Z"/></g>
<g><path style="opacity:1" fill="#ef0e1c" d="M 306.5,30.5 C 306.833,30.5 307.167,30.5 307.5,30.5C 308.666,178.999 308.833,327.666 308,476.5C 307.885,480.614 306.718,484.281 304.5,487.5C 303.849,485.174 303.182,482.841 302.5,480.5C 302.667,479.5 302.833,478.5 303,477.5C 303.219,478.938 303.719,480.271 304.5,481.5C 305.192,480.975 305.692,480.308 306,479.5C 306.5,329.834 306.667,180.167 306.5,30.5 Z"/></g>
<g><path style="opacity:1" fill="#340388" d="M 88.5,97.5 C 87.5043,104.267 85.671,110.934 83,117.5C 81.3584,121.3 78.8584,124.3 75.5,126.5C 72.8127,126.664 70.146,126.497 67.5,126C 62.4832,121.134 59.1498,115.3 57.5,108.5C 55.9216,99.9152 55.2549,91.2485 55.5,82.5C 56.9238,80.4855 57.5905,78.1522 57.5,75.5C 58.4727,68.6754 61.4727,62.842 66.5,58C 69.8333,56 73.1667,56 76.5,58C 83.7724,64.4533 87.6058,72.62 88,82.5C 88.4993,87.4889 88.6659,92.4889 88.5,97.5 Z"/></g>
<g><path style="opacity:1" fill="#e82228" d="M 193.5,54.5 C 193.068,63.6263 191.901,72.6263 190,81.5C 188.541,83.4319 187.375,85.4319 186.5,87.5C 188.728,76.3508 191.062,65.3508 193.5,54.5 Z"/></g>
<g><path style="opacity:1" fill="#efeef9" d="M 91.5,74.5 C 92.7782,83.5026 92.7782,92.5026 91.5,101.5C 90.2502,101.577 89.4169,102.244 89,103.5C 88.5045,101.527 88.3379,99.5273 88.5,97.5C 88.6659,92.4889 88.4993,87.4889 88,82.5C 87.6058,72.62 83.7724,64.4533 76.5,58C 73.1667,56 69.8333,56 66.5,58C 61.4727,62.842 58.4727,68.6754 57.5,75.5C 55.8372,77.4385 55.1706,79.7718 55.5,82.5C 55.2549,91.2485 55.9216,99.9152 57.5,108.5C 56.0652,107.21 55.0652,105.544 54.5,103.5C 53.5344,105.396 53.2011,107.396 53.5,109.5C 52.4192,106.373 51.7526,103.04 51.5,99.5C 51.2792,90.1339 51.6126,80.8006 52.5,71.5C 53.2905,65.09 56.2905,59.9233 61.5,56C 78.3139,50.5895 88.3139,56.7561 91.5,74.5 Z"/></g>
<g><path style="opacity:1" fill="#b1a5dd" d="M 57.5,75.5 C 57.5905,78.1522 56.9238,80.4855 55.5,82.5C 55.1706,79.7718 55.8372,77.4385 57.5,75.5 Z"/></g>
<g><path style="opacity:1" fill="#c8bbe9" d="M 52.5,71.5 C 51.6126,80.8006 51.2792,90.1339 51.5,99.5C 50.3434,91.3437 50.1768,83.0104 51,74.5C 51.2321,73.2625 51.7321,72.2625 52.5,71.5 Z"/></g>
<g><path style="opacity:1" fill="#9684c4" d="M 91.5,74.5 C 92.9676,78.7416 93.6343,83.2416 93.5,88C 93.6343,92.7584 92.9676,97.2584 91.5,101.5C 92.7782,92.5026 92.7782,83.5026 91.5,74.5 Z"/></g>
<g><path style="opacity:1" fill="#b1a5dc" d="M 168.5,85.5 C 168.59,88.1522 167.924,90.4855 166.5,92.5C 166.41,89.8478 167.076,87.5145 168.5,85.5 Z"/></g>
<g><path style="opacity:1" fill="#a290ca" d="M 166.5,92.5 C 166.277,96.1621 165.277,99.4954 163.5,102.5C 163.723,98.8379 164.723,95.5046 166.5,92.5 Z"/></g>
<g><path style="opacity:1" fill="#b6afdb" d="M 123.5,111.5 C 119.833,112.167 116.167,112.833 112.5,113.5C 115.963,111.109 119.629,110.442 123.5,111.5 Z"/></g>
<g><path style="opacity:1" fill="#dddbf2" d="M 88.5,97.5 C 88.3379,99.5273 88.5045,101.527 89,103.5C 89.4169,102.244 90.2502,101.577 91.5,101.5C 89.0448,112.904 84.0448,122.904 76.5,131.5C 76.3433,130.127 76.51,128.793 77,127.5C 77.6543,128.696 78.1543,128.696 78.5,127.5C 77.675,126.614 76.675,126.281 75.5,126.5C 78.8584,124.3 81.3584,121.3 83,117.5C 85.671,110.934 87.5043,104.267 88.5,97.5 Z"/></g>
<g><path style="opacity:1" fill="#3b0b83" d="M 70.5,130.5 C 70.8039,131.15 71.1373,131.817 71.5,132.5C 69.0451,136.414 66.8785,140.414 65,144.5C 64.8138,141.964 64.3138,139.631 63.5,137.5C 63.335,134.15 63.5017,130.817 64,127.5C 65.8425,129.171 68.0092,130.171 70.5,130.5 Z"/></g>
<g><path style="opacity:1" fill="#dfdcf0" d="M 70.5,130.5 C 71.9999,131.625 73.3332,132.959 74.5,134.5C 73.0449,140.729 71.0449,146.729 68.5,152.5C 68.8076,150.076 68.4742,147.743 67.5,145.5C 66.2798,146.711 65.1131,146.711 64,145.5C 63.5026,142.854 63.3359,140.187 63.5,137.5C 64.3138,139.631 64.8138,141.964 65,144.5C 66.8785,140.414 69.0451,136.414 71.5,132.5C 71.1373,131.817 70.8039,131.15 70.5,130.5 Z"/></g>
<g><path style="opacity:1" fill="#c3b9e8" d="M 57.5,129.5 C 60.6094,141.457 60.9427,153.457 58.5,165.5C 58.2994,162.272 58.6328,159.105 59.5,156C 58.5228,147.201 57.8562,138.368 57.5,129.5 Z"/></g>
<g><path style="opacity:1" fill="#d9d5ef" d="M 57.5,173.5 C 57.6646,176.518 57.498,179.518 57,182.5C 53.5038,181.132 51.6705,182.466 51.5,186.5C 50.8826,186.389 50.3826,186.056 50,185.5C 50.1845,181.477 52.3512,179.144 56.5,178.5C 56.2155,176.585 56.5489,174.919 57.5,173.5 Z"/></g>
<g><path style="opacity:1" fill="#b7a9d9" d="M 115.5,174.5 C 116.455,176.283 117.122,178.283 117.5,180.5C 117.547,182.038 116.88,183.038 115.5,183.5C 116.076,180.607 116.076,177.607 115.5,174.5 Z"/></g>
<g><path style="opacity:1" fill="#cabae4" d="M 52.5,209.5 C 54.4352,210.15 56.4352,210.483 58.5,210.5C 58.5,213.167 58.5,215.833 58.5,218.5C 57.3995,216.723 56.5662,214.723 56,212.5C 54.4815,211.837 53.3149,210.837 52.5,209.5 Z"/></g>
<g><path style="opacity:1" fill="#bdb0de" d="M 74.5,213.5 C 75.9238,215.515 76.5905,217.848 76.5,220.5C 75.0762,218.485 74.4095,216.152 74.5,213.5 Z"/></g>
<g><path style="opacity:1" fill="#bfb2e2" d="M 95.5,217.5 C 95.821,220.577 94.821,222.91 92.5,224.5C 93.3228,222.013 94.3228,219.679 95.5,217.5 Z"/></g>
<g><path style="opacity:1" fill="#d8d4ed" d="M 70.5,257.5 C 72.4835,257.383 74.1502,258.05 75.5,259.5C 75.2907,260.086 74.9574,260.586 74.5,261C 75.2489,262.734 75.7489,264.567 76,266.5C 77.3756,267.705 78.5423,269.038 79.5,270.5C 79.1667,270.5 78.8333,270.5 78.5,270.5C 74.1809,267.181 71.5142,262.848 70.5,257.5 Z"/></g>
<g><path style="opacity:1" fill="#ffb4bc" d="M 235.5,262.5 C 236.201,264.588 237.201,266.588 238.5,268.5C 237.504,268.586 236.671,268.252 236,267.5C 235.506,265.866 235.34,264.199 235.5,262.5 Z"/></g>
<g><path style="opacity:1" fill="#7e71a7" d="M 87.5,269.5 C 87.3893,270.117 87.056,270.617 86.5,271C 83.633,271.801 80.9664,271.634 78.5,270.5C 78.8333,270.5 79.1667,270.5 79.5,270.5C 82.2372,270.599 84.9039,270.265 87.5,269.5 Z"/></g>
<g><path style="opacity:1" fill="#e8252e" d="M 258.5,304.5 C 259.117,304.611 259.617,304.944 260,305.5C 260.5,314.494 260.666,323.494 260.5,332.5C 259.724,323.318 259.058,313.985 258.5,304.5 Z"/></g>
<g><path style="opacity:1" fill="#f46271" d="M 260.5,341.5 C 261.152,342.449 261.486,343.615 261.5,345C 261.392,346.681 260.725,347.848 259.5,348.5C 260.369,346.283 260.702,343.95 260.5,341.5 Z"/></g>
<g><path style="opacity:1" fill="#e93232" d="M 231.5,411.5 C 229.897,416.436 226.564,419.77 221.5,421.5C 225.167,418.5 228.5,415.167 231.5,411.5 Z"/></g>
<g><path style="opacity:1" fill="#f9fafc" d="M -0.5,477.5 C 0.166667,478.167 0.833333,478.833 1.5,479.5C 1.23219,481.099 1.56552,482.432 2.5,483.5C 3.22713,485.954 4.22713,488.287 5.5,490.5C 11.6172,501.568 20.9505,508.235 33.5,510.5C 33.5,510.833 33.5,511.167 33.5,511.5C 22.1667,511.5 10.8333,511.5 -0.5,511.5C -0.5,500.167 -0.5,488.833 -0.5,477.5 Z"/></g>
<g><path style="opacity:1" fill="#3e0a83" d="M 5.5,490.5 C 8.25301,490.954 9.91968,492.621 10.5,495.5C 11.086,495.291 11.586,494.957 12,494.5C 12.49,495.793 12.6567,497.127 12.5,498.5C 15.3214,498.539 17.9881,499.205 20.5,500.5C 19.7542,501.736 19.4208,503.07 19.5,504.5C 21.1439,504.714 22.6439,504.38 24,503.5C 24.941,505.061 26.1076,506.395 27.5,507.5C 30.6412,505.832 33.3078,506.332 35.5,509C 81.8333,509.667 128.167,509.667 174.5,509C 172.273,508.296 171.94,507.129 173.5,505.5C 175.228,507.226 177.228,508.559 179.5,509.5C 131.003,510.499 82.3362,510.832 33.5,510.5C 20.9505,508.235 11.6172,501.568 5.5,490.5 Z"/></g>
<g><path style="opacity:1" fill="#e21416" d="M 200.5,494.5 C 198.365,496.369 195.698,497.036 192.5,496.5C 192.5,497.5 192.5,498.5 192.5,499.5C 193.5,499.5 194.5,499.5 195.5,499.5C 195.5,502.833 195.5,506.167 195.5,509.5C 222.5,509.5 249.5,509.5 276.5,509.5C 275.791,510.404 274.791,510.737 273.5,510.5C 246.165,510.667 218.831,510.5 191.5,510C 192.056,509.617 192.389,509.117 192.5,508.5C 193.725,507.848 194.392,506.681 194.5,505C 194.359,503.045 193.526,501.545 192,500.5C 191.506,498.866 191.34,497.199 191.5,495.5C 194.609,495.736 197.609,495.403 200.5,494.5 Z"/></g>
<g><path style="opacity:1" fill="#d0c7e3" d="M 179.5,509.5 C 181.179,509.285 182.179,509.952 182.5,511.5C 132.833,511.5 83.1667,511.5 33.5,511.5C 33.5,511.167 33.5,510.833 33.5,510.5C 82.3362,510.832 131.003,510.499 179.5,509.5 Z"/></g>
<g><path style="opacity:1" fill="#febfc9" d="M 192.5,508.5 C 192.389,509.117 192.056,509.617 191.5,510C 218.831,510.5 246.165,510.667 273.5,510.5C 273.5,510.833 273.5,511.167 273.5,511.5C 245.5,511.5 217.5,511.5 189.5,511.5C 189.5,509.5 190.5,508.5 192.5,508.5 Z"/></g>
</svg>
